<svg width="32" height="32" viewBox="0 0 32 32" fill="none" xmlns="http://www.w3.org/2000/svg">
<path d="M27.3609 4.63906C24.3419 1.65523 20.2648 -0.0124703 16.0195 7.02159e-05C11.7748 0.0123772 7.70759 1.70422 4.7059 4.7059C1.70422 7.70734 0.0123637 11.7749 7.02984e-05 16.0195C-0.0124776 20.2644 1.65523 24.3413 4.63906 27.3609C7.6581 30.3448 11.7352 32.0125 15.9805 31.9999C20.2252 31.9876 24.2924 30.2958 27.2941 27.2941C30.2958 24.2927 31.9876 20.2251 31.9999 15.9805C32.0125 11.7356 30.3448 7.65866 27.3609 4.63906ZM24.8913 9.10335L15.9122 20.5992C15.7044 20.8649 15.3956 21.0326 15.0594 21.062C15.0249 21.0654 14.9918 21.0669 14.9547 21.0669C14.654 21.0669 14.3637 20.9554 14.14 20.7546L9.87578 16.9168C9.65377 16.717 9.63615 16.375 9.83596 16.1533C10.0358 15.9313 10.3775 15.9134 10.5994 16.1132L14.863 19.9511C14.891 19.9762 14.9281 19.9885 14.9655 19.9848C15.0029 19.9822 15.0374 19.9636 15.0601 19.9337L24.0405 8.43783C24.2243 8.20255 24.5639 8.16081 24.7991 8.34469C25.0344 8.52857 25.0762 8.8681 24.8925 9.10336L24.8913 9.10335Z" fill="#009F79"/>
</svg>
