<svg width="26" height="22" viewBox="0 0 26 22" fill="none" xmlns="http://www.w3.org/2000/svg">
<path d="M25.5656 4.03737C25.3643 3.78273 25.0581 3.63362 24.7336 3.63201H14.6961V5.76541H23.4001L21.6508 13.6694H7.78432L5.71484 1.19992C5.67162 0.949559 5.54055 0.722615 5.34502 0.560284C5.14948 0.398139 4.90234 0.31082 4.64824 0.314569H0.200195V2.44797H3.75215L5.88554 14.9385C5.92876 15.1889 6.05983 15.4157 6.25536 15.5779C6.4509 15.7403 6.69804 15.8274 6.95214 15.8237H22.5041C22.7507 15.8297 22.9918 15.7501 23.1863 15.5985C23.3808 15.4467 23.5166 15.2324 23.5709 14.9917L25.8002 4.93319C25.8626 4.61426 25.7761 4.28446 25.5656 4.0371L25.5656 4.03737Z" fill="#C92C2C"/>
<path d="M0.200195 4.75195H3.5495V6.88535H0.200195V4.75195Z" fill="#C92C2C"/>
<path d="M0.200195 8.10083H3.5495V10.2342H0.200195V8.10083Z" fill="#C92C2C"/>
<path d="M0.200195 11.4399H3.5495V13.5733H0.200195V11.4399Z" fill="#C92C2C"/>
<path d="M13 19.3333C13 20.5115 12.0448 21.4666 10.8666 21.4666C9.68842 21.4666 8.7334 20.5115 8.7334 19.3333C8.7334 18.1552 9.68842 17.2 10.8666 17.2C12.0448 17.2 13 18.1552 13 19.3333Z" fill="#C92C2C"/>
<path d="M21.5334 19.3333C21.5334 20.5115 20.5782 21.4666 19.4 21.4666C18.2218 21.4666 17.2666 20.5115 17.2666 19.3333C17.2666 18.1552 18.2218 17.2 19.4 17.2C20.5782 17.2 21.5334 18.1552 21.5334 19.3333Z" fill="#C92C2C"/>
</svg>
