<svg width="235" height="228" viewBox="0 0 235 228" fill="none" xmlns="http://www.w3.org/2000/svg">
<path d="M105.427 166.197C101.821 167.557 97.811 167.34 94.3733 165.596C90.9372 163.853 88.3927 160.744 87.362 157.032C87.0546 155.948 86.5137 154.946 85.7761 154.094C85.7269 154.723 85.2762 155.247 84.6594 155.386C65.8316 159.734 55.991 193.572 55.9028 194.041C55.7102 194.672 55.1242 195.103 54.4645 195.099H54.0834C53.3027 194.871 52.8458 194.064 53.0548 193.279C53.4667 191.81 63.4819 157.327 84.0139 152.597V152.595C83.344 152.149 82.6104 151.803 81.84 151.567C78.1991 150.506 75.1607 147.985 73.4392 144.606C73.011 143.76 72.6668 142.875 72.4107 141.963H71.5009C61.3771 141.955 51.2884 140.742 41.4514 138.349C37.5011 141.668 33.8437 145.326 30.5245 149.276C9.02311 175.009 21.3311 196.567 38.1915 210.609C47.004 218.011 57.7836 223.738 69.0913 223.738C79.1658 223.738 89.6522 219.157 99.7865 206.994C105.308 200.192 109.884 192.672 113.387 184.643C110.943 178.529 108.978 172.232 107.513 165.813C106.802 165.842 106.102 165.971 105.427 166.196L105.427 166.197Z" fill="#B6BB9B"/>
<path d="M71.8266 139.026C71.7303 137.168 72.0109 135.309 72.6482 133.562C73.6111 130.982 73.1543 128.085 71.4434 125.925C69.0359 122.921 68.0012 119.043 68.5933 115.238C69.1855 111.433 71.3512 108.052 74.5577 105.921C75.0208 105.589 75.4531 105.216 75.8506 104.807C75.5289 104.684 75.2584 104.456 75.0863 104.159C70.3861 94.9348 42.7745 91.2632 32.4644 90.618C32.0751 90.5955 31.7104 90.4192 31.4522 90.1262C31.192 89.8353 31.0609 89.4521 31.0834 89.0608C31.0896 88.6654 31.2617 88.2904 31.5588 88.0281C31.8538 87.7659 32.2472 87.6389 32.6406 87.6819C34.1978 87.6819 70.2979 90.1795 77.4341 102.369H77.4361C77.8807 101.299 78.0918 100.148 78.0529 98.9899C77.934 96.3222 78.5958 93.677 79.9624 91.3822C73.9241 78.5848 70.1396 64.8422 68.7712 50.7582C66.9312 49.7194 65.079 48.742 63.2185 47.82V47.8221C56.7396 44.6647 49.6569 42.9415 42.4525 42.7694C24.2111 42.7694 12.6097 56.2513 5.79501 71.1452C-3.31023 91.03 -4.98451 115.822 25.6798 129.892V129.89C40.1184 136.024 55.668 139.114 71.3544 138.967L71.8266 139.026Z" fill="#B6BB9B"/>
<path d="M91.7428 84.6538H92.6832C95.3222 84.66 97.7851 83.3343 99.2335 81.1296C101.022 78.3841 103.747 76.3802 106.901 75.4889C103.962 57.0135 115.008 32.0456 115.537 30.9H115.535C115.897 30.2136 116.731 29.9267 117.438 30.2464C118.145 30.564 118.483 31.3795 118.209 32.1048C118.209 32.3691 107.134 57.3659 109.78 74.9911H110.72L110.718 74.989C113.808 74.9767 116.811 76.0135 119.237 77.9272C120.62 79.0357 122.341 79.636 124.114 79.6319C125.056 79.6422 125.995 79.4721 126.874 79.132C128.246 78.6669 129.685 78.4292 131.133 78.4271C139.628 68.8383 149.533 60.5974 160.507 53.9874C161.089 50.5001 161.443 46.9781 161.564 43.4433C162.328 9.78136 139.329 0.468926 117.504 0H115.713C94.3591 0 72.1817 8.81256 71.4478 41.4459H71.4458C71.5441 57.7965 75.1298 73.9398 81.961 88.7949C84.518 86.1354 88.0523 84.6376 91.7423 84.654L91.7428 84.6538Z" fill="#B6BB9B"/>
<path d="M193.081 46.3792C186.267 46.5247 179.55 48.0122 173.311 50.7557C158.69 57.2919 145.579 66.7826 134.804 78.6317C137.207 79.1849 139.42 80.3733 141.207 82.0739C142.995 83.7745 144.292 85.9218 144.966 88.2963C145.708 90.9477 147.78 93.0191 150.431 93.7587C152.005 94.2095 153.486 94.9348 154.807 95.9039C175.368 83.715 200.982 87.5031 202.187 87.7082C202.576 87.7595 202.929 87.9664 203.16 88.282C203.394 88.5975 203.488 88.995 203.42 89.3823C203.285 90.1752 202.539 90.7099 201.746 90.587C201.482 90.587 176.602 86.9154 157.129 97.9897H157.127C157.863 98.8257 158.504 99.7415 159.037 100.721C160.776 104.155 161 108.159 159.653 111.765C158.717 114.353 159.184 117.241 160.887 119.403L161.063 119.696C172 124.691 182.177 131.207 191.289 139.052C196.897 137.943 202.392 136.331 207.709 134.235C239.109 121.165 238.464 96.3133 230.092 76.0755C223.718 60.5957 212.203 46.3784 193.082 46.3784L193.081 46.3792Z" fill="#B6BB9B"/>
<path d="M163.209 123.925C164.121 126.751 164.078 129.797 163.084 132.596C162.093 135.395 160.206 137.786 157.716 139.404C155.44 140.951 154.12 143.558 154.221 146.307C154.389 149.887 153.145 153.39 150.754 156.06C158.626 162.434 174.606 177.914 176.515 199.268C176.556 199.657 176.439 200.049 176.191 200.352C175.943 200.655 175.583 200.846 175.193 200.885C174.437 200.86 173.812 200.284 173.724 199.532C171.903 179.205 156.099 164.049 148.668 158.086C146.359 159.775 143.57 160.68 140.708 160.672H139.738C137.101 160.67 134.641 161.994 133.188 164.196C131.084 167.419 127.717 169.607 123.915 170.222C120.114 170.837 116.229 169.823 113.215 167.427C112.5 166.85 111.683 166.411 110.806 166.134C114.34 181.877 121.145 196.697 130.781 209.638C140.974 222.562 151.841 227.263 162.299 227.263C173.255 227.263 183.772 221.917 192.582 214.955C209.736 201.414 222.485 180.088 201.395 153.564V153.562C190.898 141.101 177.886 130.999 163.209 123.924L163.209 123.925Z" fill="#B6BB9B"/>
<path d="M149.64 96.5815C145.981 95.5878 143.114 92.7418 142.089 89.0929C141.467 86.8206 140.112 84.8188 138.24 83.3907C136.367 81.9626 134.076 81.1902 131.722 81.1902C130.415 81.182 129.12 81.4217 127.903 81.8951C126.692 82.3499 125.407 82.5794 124.114 82.5712C121.715 82.5487 119.391 81.7332 117.504 80.2518C115.615 78.7295 113.263 77.9017 110.837 77.9017C107.204 77.8894 103.813 79.7129 101.82 82.7474C99.8322 85.7942 96.4391 87.628 92.8004 87.6239H91.86H91.862C88.8829 87.5952 86.0246 88.8 83.9653 90.9534C81.9061 93.1068 80.8304 96.0163 80.9923 98.9912C81.1746 102.782 79.3429 106.388 76.1752 108.48C73.6591 110.154 71.9605 112.811 71.4975 115.799C71.0344 118.788 71.8458 121.835 73.737 124.193C76.0932 127.166 76.7263 131.151 75.413 134.71C74.3476 137.544 74.5278 140.697 75.9088 143.394C77.2898 146.088 79.7444 148.076 82.6684 148.869C86.3175 149.867 89.1736 152.713 90.188 156.358C90.8211 158.63 92.1816 160.63 94.0584 162.056C95.9352 163.484 98.228 164.256 100.584 164.26C101.881 164.268 103.168 164.029 104.375 163.555C107.927 162.244 111.906 162.865 114.89 165.199C117.258 167.086 120.309 167.889 123.296 167.413C126.286 166.938 128.939 165.229 130.605 162.703C132.562 159.627 135.949 157.757 139.594 157.738H140.563C143.503 157.734 146.312 156.525 148.339 154.395C150.363 152.264 151.428 149.395 151.283 146.459C151.115 142.671 152.943 139.071 156.102 136.97C158.639 135.315 160.362 132.666 160.841 129.672C161.323 126.681 160.52 123.624 158.626 121.257C156.225 118.307 155.565 114.305 156.895 110.74C157.95 107.904 157.766 104.757 156.385 102.063C155.006 99.3703 152.557 97.3828 149.64 96.5818L149.64 96.5815ZM116.154 150.482C108.774 150.49 101.695 147.564 96.4725 142.352C91.2498 137.139 88.3135 130.064 88.3077 122.684C88.3016 115.306 91.2295 108.227 96.4442 103.006C101.661 97.7852 108.736 94.8511 116.114 94.849C123.494 94.8449 130.571 97.7749 135.79 102.991C141.008 108.208 143.94 115.285 143.94 122.665C143.934 130.035 141.004 137.102 135.796 142.314C130.588 147.529 123.525 150.465 116.155 150.481L116.154 150.482Z" fill="#B6BB9B"/>
<path d="M116.154 97.7827C109.553 97.7746 103.222 100.391 98.5502 105.052C93.8786 109.715 91.2498 116.043 91.2456 122.642C91.2395 129.242 93.858 135.575 98.5213 140.245C103.185 144.915 109.514 147.539 116.113 147.541C122.715 147.545 129.044 144.924 133.714 140.259C138.381 135.591 141.004 129.262 141.004 122.663C140.996 116.071 138.375 109.752 133.718 105.089C129.06 100.426 122.743 97.799 116.154 97.7822V97.7827Z" fill="#B6BB9B"/>
</svg>
