<svg width="28" height="28" viewBox="0 0 28 28" fill="none" xmlns="http://www.w3.org/2000/svg">
<path d="M14.0003 0.666748C6.62699 0.666748 0.666992 6.62675 0.666992 14.0001C0.666992 21.3734 6.62699 27.3334 14.0003 27.3334C21.3737 27.3334 27.3337 21.3734 27.3337 14.0001C27.3337 6.62675 21.3737 0.666748 14.0003 0.666748ZM14.0003 24.6667C8.12033 24.6667 3.33366 19.8801 3.33366 14.0001C3.33366 8.12008 8.12033 3.33341 14.0003 3.33341C19.8803 3.33341 24.667 8.12008 24.667 14.0001C24.667 19.8801 19.8803 24.6667 14.0003 24.6667ZM18.787 7.33342L14.0003 12.1201L9.21366 7.33342L7.33366 9.21342L12.1203 14.0001L7.33366 18.7867L9.21366 20.6667L14.0003 15.8801L18.787 20.6667L20.667 18.7867L15.8803 14.0001L20.667 9.21342L18.787 7.33342Z" fill="#C92C2C"/>
</svg>
