<svg width="41" height="43" viewBox="0 0 41 43" fill="none" xmlns="http://www.w3.org/2000/svg">
<g filter="url(#filter0_d_1_2716)">
<path d="M14.3062 5.76432C16.8465 4.23332 20.0252 4.23332 22.5654 5.76432L26.4473 8.10396C28.8492 9.55161 30.3177 12.1513 30.3177 14.9557L30.3177 20.2402C30.3177 23.0447 28.8492 25.6443 26.4473 27.092L22.5654 29.4316C20.0252 30.9626 16.8465 30.9626 14.3063 29.4316L10.4244 27.092C8.02245 25.6443 6.55396 23.0447 6.55396 20.2402V14.9557C6.55396 12.1513 8.02245 9.55161 10.4244 8.10396L14.3062 5.76432Z" fill="#333626"/>
</g>
<path d="M21.5074 11.0332H15.139C14.0432 11.0343 12.9926 11.4451 12.2178 12.1753C11.4429 12.9056 11.0071 13.8957 11.0059 14.9284V19.8692C11.0071 20.9019 11.4429 21.892 12.2178 22.6223C12.9926 23.3525 14.0432 23.7633 15.139 23.7644H21.5074C22.6032 23.7633 23.6538 23.3525 24.4287 22.6223C25.2035 21.892 25.6394 20.9019 25.6405 19.8692V14.9284C25.6394 13.8957 25.2035 12.9056 24.4287 12.1753C23.6538 11.4451 22.6032 11.0343 21.5074 11.0332ZM15.139 12.0941H21.5074C22.0905 12.0951 22.6607 12.2558 23.1486 12.5566C23.6366 12.8574 24.0213 13.2854 24.2559 13.7884L20.0422 16.436C19.5335 16.7566 18.9352 16.9278 18.3232 16.9278C17.7112 16.9278 17.1129 16.7566 16.6042 16.436L12.3905 13.7884C12.6251 13.2854 13.0098 12.8574 13.4978 12.5566C13.9857 12.2558 14.5559 12.0951 15.139 12.0941ZM24.5148 14.9284V19.8692C24.5139 20.6206 24.1968 21.341 23.633 21.8724C23.0692 22.4037 22.3047 22.7026 21.5074 22.7035H15.139C14.3417 22.7026 13.5773 22.4037 13.0134 21.8724C12.4496 21.341 12.1325 20.6206 12.1316 19.8692V14.9284C12.1316 14.9194 12.1316 14.9114 12.1316 14.9024L15.9766 17.3187C16.6702 17.7558 17.4859 17.9892 18.3204 17.9892C19.1548 17.9892 19.9705 17.7558 20.6642 17.3187L24.5148 14.9024V14.9284Z" fill="white"/>
<defs>
<filter id="filter0_d_1_2716" x="0.553955" y="0.615967" width="39.7637" height="41.9639" filterUnits="userSpaceOnUse" color-interpolation-filters="sRGB">
<feFlood flood-opacity="0" result="BackgroundImageFix"/>
<feColorMatrix in="SourceAlpha" type="matrix" values="0 0 0 0 0 0 0 0 0 0 0 0 0 0 0 0 0 0 127 0" result="hardAlpha"/>
<feOffset dx="2" dy="4"/>
<feGaussianBlur stdDeviation="4"/>
<feComposite in2="hardAlpha" operator="out"/>
<feColorMatrix type="matrix" values="0 0 0 0 0.196109 0 0 0 0 0.258179 0 0 0 0 0.290507 0 0 0 0.15 0"/>
<feBlend mode="normal" in2="BackgroundImageFix" result="effect1_dropShadow_1_2716"/>
<feBlend mode="normal" in="SourceGraphic" in2="effect1_dropShadow_1_2716" result="shape"/>
</filter>
</defs>
</svg>
