<svg width="39" height="42" viewBox="0 0 39 42" fill="none" xmlns="http://www.w3.org/2000/svg">
<g filter="url(#filter0_d_1_2732)">
<path d="M13.0534 5.39108C15.7071 3.66324 19.1302 3.66324 21.7838 5.39109L24.7822 7.34342C27.0495 8.81971 28.417 11.342 28.417 14.0475L28.417 19.6953C28.417 22.4009 27.0495 24.9231 24.7822 26.3994L21.7838 28.3517C19.1302 30.0796 15.7071 30.0796 13.0534 28.3517L10.055 26.3994C7.78771 24.9231 6.42021 22.4009 6.42021 19.6953V14.0475C6.42021 11.342 7.78772 8.81971 10.055 7.34342L13.0534 5.39108Z" fill="#343627"/>
</g>
<path d="M17.3032 10.3066C19.7548 10.3402 21.8741 12.1792 22.3705 14.7324C22.6433 16.1358 22.3741 17.4374 21.711 18.6632C21.1331 19.7312 20.3619 20.6251 19.4962 21.4318C18.8994 21.9878 18.2618 22.4853 17.5913 22.9365C17.3917 23.0706 17.214 23.0724 17.0148 22.9372C15.6258 21.9959 14.3772 20.8891 13.3901 19.4731C12.8596 18.7119 12.4402 17.8879 12.2515 16.9534C11.922 15.3199 12.2565 13.8332 13.1938 12.5079C13.9607 11.4233 14.9859 10.7412 16.2343 10.4588C16.5847 10.3794 16.9465 10.3557 17.3032 10.3066ZM12.9077 15.8286C12.9336 16.0736 12.9472 16.3211 12.9876 16.5633C13.1289 17.4046 13.483 18.1485 13.9448 18.8362C14.8324 20.1583 15.9796 21.1839 17.2369 22.0824C17.3029 22.1297 17.3437 22.1004 17.3894 22.0637C17.8765 21.6754 18.3785 21.3057 18.8463 20.8927C19.6735 20.1622 20.4027 19.3326 20.959 18.3451C21.5379 17.3174 21.8098 16.2261 21.6109 15.0191C21.1765 12.3787 18.661 10.6505 16.2174 11.3276C14.2817 11.8643 12.9362 13.7026 12.9077 15.8286Z" fill="white"/>
<path d="M17.3102 13.3008C18.6249 13.304 19.6938 14.4489 19.6909 15.8508C19.6879 17.2503 18.612 18.3889 17.2957 18.3853C15.9813 18.3822 14.9124 17.2369 14.915 15.8349C14.9177 14.4355 15.9933 13.2976 17.3102 13.3008ZM18.8948 15.8381C18.8934 14.9082 18.1763 14.1477 17.3016 14.1481C16.4273 14.1488 15.7118 14.9103 15.7111 15.8409C15.7105 16.7776 16.4299 17.5409 17.3106 17.5377C18.1836 17.5349 18.8961 16.7705 18.8948 15.8381Z" fill="white"/>
<defs>
<filter id="filter0_d_1_2732" x="0.420166" y="0.0952148" width="37.9968" height="41.5525" filterUnits="userSpaceOnUse" color-interpolation-filters="sRGB">
<feFlood flood-opacity="0" result="BackgroundImageFix"/>
<feColorMatrix in="SourceAlpha" type="matrix" values="0 0 0 0 0 0 0 0 0 0 0 0 0 0 0 0 0 0 127 0" result="hardAlpha"/>
<feOffset dx="2" dy="4"/>
<feGaussianBlur stdDeviation="4"/>
<feComposite in2="hardAlpha" operator="out"/>
<feColorMatrix type="matrix" values="0 0 0 0 0.196109 0 0 0 0 0.258179 0 0 0 0 0.290507 0 0 0 0.15 0"/>
<feBlend mode="normal" in2="BackgroundImageFix" result="effect1_dropShadow_1_2732"/>
<feBlend mode="normal" in="SourceGraphic" in2="effect1_dropShadow_1_2732" result="shape"/>
</filter>
</defs>
</svg>
