<svg width="41" height="43" viewBox="0 0 41 43" fill="none" xmlns="http://www.w3.org/2000/svg">
<g filter="url(#filter0_d_1_2724)">
<path d="M14.3082 5.98893C16.8484 4.45793 20.0272 4.45793 22.5674 5.98893L26.4493 8.32857C28.8512 9.77622 30.3197 12.3759 30.3197 15.1803L30.3197 20.4648C30.3197 23.2693 28.8512 25.8689 26.4493 27.3166L22.5674 29.6562C20.0272 31.1872 16.8484 31.1872 14.3082 29.6562L10.4263 27.3166C8.02441 25.8689 6.55591 23.2693 6.55591 20.4648V15.1803C6.55591 12.3759 8.0244 9.77622 10.4263 8.32857L14.3082 5.98893Z" fill="#303224"/>
</g>
<path d="M13.1639 23.9887C13.0005 23.9922 12.838 23.9626 12.6858 23.9016C12.5335 23.8406 12.3945 23.7494 12.2765 23.6332C12.1586 23.517 12.0641 23.378 11.9985 23.2242C11.9329 23.0705 11.8973 22.9049 11.894 22.7371V20.9286C11.8726 20.663 11.9297 20.3969 12.0577 20.1652C12.1857 19.9334 12.3787 19.7466 12.6115 19.6292L16.5812 17.826V16.9031C16.5826 16.791 16.6054 16.6802 16.6484 16.5772C16.6914 16.4741 16.7538 16.3808 16.8319 16.3025C16.9101 16.2241 17.0025 16.1624 17.1038 16.1208C17.2052 16.0792 17.3135 16.0585 17.4227 16.0599H19.7043C19.8135 16.0585 19.9218 16.0792 20.0232 16.1208C20.1245 16.1624 20.2169 16.2241 20.295 16.3025C20.3732 16.3808 20.4355 16.4741 20.4786 16.5772C20.5216 16.6802 20.5444 16.791 20.5458 16.9031V17.826L24.4845 19.6292C24.7144 19.7489 24.9042 19.9367 25.0293 20.1683C25.1545 20.3999 25.2092 20.6647 25.1865 20.9286V22.7371C25.1797 23.0733 25.0443 23.3932 24.8095 23.6275C24.5747 23.8618 24.2594 23.9916 23.9321 23.9887H13.1639ZM17.5775 18.1548C17.5763 18.2546 17.5477 18.352 17.4949 18.4359C17.4434 18.5209 17.3677 18.5875 17.2781 18.6268L13.009 20.5785C12.9316 20.6156 12.9006 20.7907 12.9006 20.9286V22.7371C12.9096 22.8004 12.942 22.8577 12.991 22.8972C13.04 22.9367 13.1019 22.9553 13.1639 22.9492H23.9321C23.9941 22.9553 24.056 22.9367 24.105 22.8972C24.1541 22.8577 24.1864 22.8004 24.1954 22.7371V20.9286C24.1954 20.7907 24.1644 20.6156 24.087 20.5785L19.8385 18.6374C19.7489 18.5981 19.6732 18.5315 19.6217 18.4465C19.569 18.3626 19.5404 18.2652 19.5391 18.1654V17.0941H17.5775V18.1548ZM23.8702 17.1842C23.7656 17.1832 23.6616 17.1689 23.5604 17.1418L21.7485 16.6433C21.45 16.5588 21.1959 16.3568 21.0413 16.0811C20.9639 15.9476 20.9135 15.7994 20.8931 15.6454C20.8727 15.4914 20.8827 15.3347 20.9226 15.1848L20.9536 15.0575C20.9715 14.9736 20.9715 14.8868 20.9536 14.8029C20.9412 14.7187 20.9132 14.6376 20.871 14.5643C20.8261 14.4916 20.7662 14.43 20.6955 14.384C20.6243 14.3401 20.5453 14.3112 20.4632 14.2991C19.1892 14.1152 17.8965 14.1152 16.6225 14.2991C16.5404 14.3112 16.4614 14.3401 16.3902 14.384C16.3232 14.4312 16.2669 14.4927 16.225 14.5643C16.1792 14.6368 16.1476 14.7179 16.1321 14.8029C16.1142 14.8868 16.1142 14.9736 16.1321 15.0575L16.1631 15.1848C16.2044 15.3363 16.2152 15.4949 16.1948 15.6508C16.1744 15.8068 16.1232 15.9568 16.0444 16.0917C15.8922 16.3652 15.6422 16.5669 15.3475 16.6539L13.5356 17.1524C13.4342 17.1778 13.3302 17.1903 13.2258 17.1895C13.0069 17.1863 12.7936 17.1182 12.6115 16.9933C12.4228 16.8631 12.2755 16.6786 12.1882 16.463C11.8915 15.9167 11.6856 15.3234 11.5791 14.7075C11.5791 13.7051 12.3534 12.8035 13.7679 12.1618C15.2861 11.5343 16.9118 11.2276 18.548 11.2602C20.1842 11.2276 21.8099 11.5343 23.3282 12.1618C24.7426 12.8035 25.5169 13.7051 25.5169 14.7075C25.419 15.3178 25.2237 15.9074 24.9387 16.4523C24.8332 16.731 24.6309 16.9597 24.3709 17.0941C24.2136 17.1663 24.0424 17.2007 23.8702 17.1948V17.1842ZM18.548 13.1217C19.2388 13.1232 19.9286 13.1728 20.6129 13.2702C20.8388 13.3016 21.0555 13.383 21.2478 13.5089C21.4381 13.6345 21.6015 13.7987 21.7279 13.9915C21.8516 14.1859 21.9343 14.4048 21.9708 14.6341C22.0072 14.8633 21.9966 15.0979 21.9395 15.3227L21.9034 15.45C21.8882 15.4891 21.8882 15.5328 21.9034 15.572C21.9262 15.6093 21.9608 15.6374 22.0015 15.6515L23.8134 16.15H23.8547C23.8768 16.1555 23.8997 16.1555 23.9218 16.15C23.9448 16.1397 23.9648 16.1236 23.9802 16.1032C23.9955 16.0828 24.0056 16.0588 24.0096 16.0334C24.2101 15.605 24.3742 15.1596 24.5 14.7022C24.5 14.1718 23.9011 13.5566 22.9049 13.1111C21.5185 12.5513 20.0371 12.2826 18.548 12.3209C17.0486 12.2797 15.5565 12.5484 14.1602 13.1111C13.169 13.5619 12.5754 14.1718 12.5702 14.7022C12.7008 15.1602 12.87 15.6056 13.0761 16.0334C13.0901 16.071 13.1179 16.1014 13.1536 16.1182C13.1756 16.1236 13.1986 16.1236 13.2207 16.1182H13.262L15.0739 15.6197C15.1177 15.6187 15.1597 15.6017 15.1926 15.572C15.2078 15.5328 15.2078 15.4891 15.1926 15.45L15.1565 15.3227C15.0994 15.0979 15.0888 14.8633 15.1252 14.6341C15.1617 14.4048 15.2444 14.1859 15.3681 13.9915C15.4945 13.7987 15.6579 13.6345 15.8482 13.5089C16.0405 13.383 16.2572 13.3016 16.4831 13.2702C17.1674 13.1728 17.8572 13.1232 18.548 13.1217Z" fill="white"/>
<defs>
<filter id="filter0_d_1_2724" x="0.555908" y="0.840576" width="39.7637" height="41.9639" filterUnits="userSpaceOnUse" color-interpolation-filters="sRGB">
<feFlood flood-opacity="0" result="BackgroundImageFix"/>
<feColorMatrix in="SourceAlpha" type="matrix" values="0 0 0 0 0 0 0 0 0 0 0 0 0 0 0 0 0 0 127 0" result="hardAlpha"/>
<feOffset dx="2" dy="4"/>
<feGaussianBlur stdDeviation="4"/>
<feComposite in2="hardAlpha" operator="out"/>
<feColorMatrix type="matrix" values="0 0 0 0 0.196109 0 0 0 0 0.258179 0 0 0 0 0.290507 0 0 0 0.15 0"/>
<feBlend mode="normal" in2="BackgroundImageFix" result="effect1_dropShadow_1_2724"/>
<feBlend mode="normal" in="SourceGraphic" in2="effect1_dropShadow_1_2724" result="shape"/>
</filter>
</defs>
</svg>
