<svg width="106" height="34" viewBox="0 0 106 34" fill="none" xmlns="http://www.w3.org/2000/svg">
<path d="M13.7991 26.5131C12.2631 26.5131 10.8151 26.3243 9.45523 25.9466C8.09149 25.5899 6.91181 25.0444 5.91619 24.3101C4.92056 23.5757 4.18367 22.6525 3.70549 21.5405C3.24866 20.4285 3.15914 19.1171 3.43694 17.6065C3.64144 16.4944 4.06211 15.309 4.69894 14.0501C5.0648 13.3367 5.50736 12.7283 6.02662 12.2247C6.56723 11.7212 7.09727 11.333 7.61677 11.0602C8.13626 10.7875 8.53467 10.6511 8.812 10.6511C9.17467 10.6511 9.29314 10.8189 9.1674 11.1547C9.01239 11.3015 8.7556 11.4799 8.39701 11.6897C8.06362 11.8785 7.68665 12.1303 7.26611 12.445C6.8669 12.7597 6.461 13.1689 6.04839 13.6724C5.66098 14.155 5.33383 14.774 5.06693 15.5293C4.9741 15.8021 4.88127 16.0748 4.78845 16.3476C4.71696 16.6203 4.65806 16.8826 4.61176 17.1344C4.36096 18.4982 4.43777 19.7046 4.84218 20.7537C5.2466 21.8028 5.86514 22.6735 6.69781 23.3659C7.55182 24.0583 8.52396 24.5723 9.61422 24.908C10.722 25.2647 11.8431 25.4326 12.9776 25.4116C14.7133 25.3696 16.2937 25.1283 17.7187 24.6877C19.1399 24.2681 20.4387 23.7016 21.6153 22.9882C22.7918 22.2749 23.8538 21.488 24.8013 20.6278C25.5939 19.9144 26.4153 19.0437 27.2657 18.0156C28.1161 16.9875 28.9587 15.886 29.7934 14.711C30.6533 13.5151 31.4687 12.3296 32.2394 11.1547C33.0315 9.97969 33.7693 8.86767 34.4529 7.81859C35.1365 6.76952 35.7271 5.8778 36.2248 5.14345C36.7264 4.38811 37.1215 3.86358 37.4102 3.56983C35.8175 3.06628 34.2675 2.67812 32.7604 2.40536C31.2784 2.11162 29.6704 1.92279 27.9365 1.83886C26.352 1.75493 24.8898 1.93328 23.5501 2.37389C22.2318 2.8145 21.0658 3.41247 20.0523 4.16781C19.0639 4.90216 18.254 5.70995 17.6226 6.59117C17.0126 7.4724 16.6323 8.32215 16.4818 9.14043C16.3506 9.8538 16.4143 10.4937 16.6728 11.0602C16.9564 11.6058 17.4591 12.0044 18.1808 12.2562C18.6658 12.4031 19.1537 12.4765 19.6443 12.4765C20.4123 12.4765 21.1133 12.3191 21.7471 12.0044C22.381 11.6897 22.9305 11.312 23.3955 10.8714C23.8857 10.4098 24.2635 9.97969 24.5288 9.58104C24.8193 9.16141 24.9819 8.85718 25.0166 8.66834L25.0224 8.63687C25.1522 8.51098 25.2705 8.44804 25.3771 8.44804C25.5905 8.44804 25.6701 8.59491 25.6161 8.88865C25.3435 9.79085 24.8682 10.5777 24.19 11.2491C23.5332 11.9205 22.788 12.4345 21.9544 12.7912C21.1209 13.1479 20.2774 13.3262 19.4241 13.3262C18.8267 13.3262 18.2681 13.2318 17.7481 13.043C16.652 12.6234 15.8901 11.952 15.4626 11.0288C15.0388 10.0846 14.9273 9.06699 15.128 7.97595C15.2977 7.05277 15.6682 6.14007 16.2395 5.23787C16.8146 4.31468 17.5876 3.47542 18.5585 2.72008C19.5332 1.94377 20.6817 1.32481 22.0039 0.863221C23.3262 0.401627 24.8193 0.17083 26.4833 0.17083C26.7606 0.17083 26.9846 0.17083 27.1553 0.17083C27.3259 0.17083 27.6101 0.191811 28.0077 0.233774C28.9949 0.3177 29.9774 0.485553 30.9551 0.737331C31.9367 0.968127 32.8698 1.2304 33.7544 1.52414C34.6391 1.81788 35.451 2.10113 36.1901 2.37389C36.9293 2.64665 37.5433 2.84597 38.0322 2.97186C38.1116 2.88794 38.32 2.74106 38.6572 2.53125C39.0158 2.32144 39.3763 2.10113 39.7387 1.87033C40.1225 1.63954 40.4258 1.44021 40.6487 1.27236C40.8716 1.10451 40.8977 1.02058 40.727 1.02058H40.695C40.7629 0.9996 40.8501 0.98911 40.9568 0.98911C41.1701 0.98911 41.3166 1.06254 41.3963 1.20941C41.4798 1.3353 41.5081 1.47168 41.481 1.61855C41.4309 1.89131 41.2778 2.02769 41.0218 2.02769C40.9791 2.02769 40.8977 2.00671 40.7774 1.96475C40.7075 1.88082 40.5398 1.92279 40.2742 2.09064C40.03 2.25849 39.7694 2.45781 39.4923 2.68861C39.2404 2.89843 39.0369 3.07677 38.8819 3.22364C39.3242 3.37051 39.8781 3.54885 40.5435 3.75867C41.2341 3.9475 41.9654 4.14683 42.7375 4.35664C43.5348 4.54548 44.3165 4.70284 45.0827 4.82873C45.8489 4.95461 46.5413 5.01756 47.16 5.01756C47.7573 5.01756 48.2402 4.94412 48.6085 4.79725C48.9982 4.65038 49.2239 4.4091 49.2856 4.07339C49.3088 3.9475 49.3494 3.8426 49.4075 3.75867C49.4908 3.65376 49.6071 3.60131 49.7564 3.60131C49.8631 3.60131 49.9204 3.69573 49.9283 3.88456C49.9401 4.05241 49.9364 4.18879 49.9171 4.2937C49.8245 4.79725 49.4719 5.20639 48.8594 5.52112C48.2682 5.83584 47.5672 5.9932 46.7566 5.9932C46.6286 5.9932 46.5006 5.9932 46.3726 5.9932C46.2484 5.97222 46.1136 5.95124 45.9681 5.93026C43.6328 5.63652 41.8356 5.25885 40.5765 4.79725C39.3387 4.33566 38.5627 4.03143 38.2483 3.88456C37.0105 5.39523 35.9357 6.94786 35.0238 8.54245C34.1119 10.137 33.232 11.7316 32.3841 13.3262C31.5575 14.9208 30.6446 16.463 29.6453 17.9527C28.6673 19.4424 27.4702 20.8481 26.0537 22.1699C25.0268 23.1141 23.8348 23.9114 22.4779 24.5618C21.1423 25.2123 19.7309 25.6948 18.2437 26.0096C16.7526 26.3453 15.2711 26.5131 13.7991 26.5131ZM36.4766 23.5862C36.0712 23.5862 35.6948 23.4288 35.3474 23.1141C35.0038 22.7784 34.8995 22.2434 35.0345 21.509C35.1387 20.9425 35.397 20.2921 35.8094 19.5577C36.1965 18.8444 36.6652 18.152 37.2153 17.4806C37.7868 16.8092 38.2071 16.2637 38.4763 15.844C38.5712 15.6762 38.6302 15.5293 38.6533 15.4034C38.7228 15.0257 38.5276 14.753 38.0678 14.5851C37.6293 14.4173 37.028 14.3229 36.2639 14.3019L35.6889 15.3405C35.3308 16.0119 34.8554 16.7987 34.2628 17.7009C33.6916 18.6031 33.0728 19.4738 32.4065 20.3131C31.7615 21.1523 31.126 21.8238 30.5001 22.3273C30.4497 22.3693 30.3925 22.3903 30.3285 22.3903C30.2431 22.3903 30.1995 22.3378 30.1974 22.2329C30.174 22.128 30.2399 22.0021 30.3949 21.8552C31.4275 20.7642 32.396 19.5577 33.3004 18.2359C34.2087 16.8931 35.0142 15.5293 35.7168 14.1445C36.4408 12.7597 37.0175 11.4799 37.4469 10.3049C37.5727 9.9692 37.7344 9.72791 37.932 9.58104C38.1336 9.41319 38.3303 9.32926 38.5223 9.32926C38.7997 9.32926 39.0306 9.46564 39.2151 9.7384C39.4035 9.99018 39.4533 10.3574 39.3645 10.8399C39.3491 10.9239 39.3211 11.0183 39.2804 11.1232C39.2611 11.2281 39.2312 11.333 39.1906 11.4379C39.0242 11.8785 38.691 12.2981 38.1911 12.6968C37.7163 13.0745 37.3335 13.3577 37.0428 13.5465C37.2523 13.5675 37.4724 13.5885 37.7032 13.6095C37.9379 13.6095 38.1939 13.6095 38.4712 13.6095C39.4739 13.6095 40.4775 13.5465 41.4819 13.4207C41.5015 13.5465 41.5054 13.641 41.4939 13.7039C41.4437 13.9767 41.2947 14.3229 41.0469 14.7425C40.8204 15.1621 40.5909 15.5398 40.3585 15.8755C40.2385 16.0643 40.0041 16.4105 39.6555 16.9141C39.3108 17.3967 38.9312 17.9527 38.5168 18.5821C38.1062 19.1906 37.7383 19.799 37.4131 20.4075C37.1131 20.995 36.9245 21.4985 36.8473 21.9182C36.747 22.4637 36.9101 22.7364 37.3368 22.7364C37.6568 22.7364 38.0455 22.5371 38.5028 22.1385C38.9639 21.7188 39.4299 21.2153 39.9006 20.6278C40.3965 20.0193 40.8458 19.4319 41.2487 18.8654C41.6767 18.2779 42.0069 17.8163 42.2393 17.4806C42.3633 17.2708 42.4999 17.1659 42.6492 17.1659C42.7346 17.1659 42.7637 17.2393 42.7367 17.3862C42.7213 17.4701 42.6661 17.596 42.5713 17.7638C42.2478 18.2464 41.8702 18.7919 41.4383 19.4004C41.0064 20.0089 40.5338 20.6068 40.0204 21.1943C39.5284 21.7818 39.0072 22.2958 38.4568 22.7364C37.9316 23.1561 37.3908 23.4288 36.8343 23.5547C36.7665 23.5757 36.6472 23.5862 36.4766 23.5862ZM43.2669 23.6806C42.4776 23.6806 41.8092 23.4288 41.2618 22.9253C40.7358 22.4217 40.5673 21.6559 40.7563 20.6278C40.93 19.6836 41.3498 18.6765 42.0159 17.6065C42.6859 16.5154 43.4588 15.5608 44.3346 14.7425C45.0845 14.0291 45.8858 13.4416 46.7387 12.98C47.5916 12.5185 48.3594 12.2877 49.042 12.2877C49.5114 12.2877 49.8936 12.4135 50.1886 12.6653C50.5011 12.9381 50.6111 13.3262 50.5185 13.8298C50.422 14.3543 50.1132 14.9313 49.5921 15.5608C49.0711 16.1902 48.387 16.7777 47.54 17.3232C47.1776 17.554 46.7317 17.7743 46.2025 17.9841C45.6732 18.194 45.1498 18.3723 44.6321 18.5192C44.1183 18.6451 43.7014 18.708 43.3814 18.708C43.2284 18.9598 43.06 19.2955 42.8762 19.7151C42.7137 20.1347 42.5919 20.5649 42.5109 21.0055C42.4144 21.53 42.4343 22.0021 42.5704 22.4217C42.7066 22.8414 43.0627 23.0512 43.6387 23.0512C44.3427 23.0512 45.0193 22.8518 45.6687 22.4532C46.318 22.0545 46.9206 21.5615 47.4767 20.974C48.0366 20.3655 48.5218 19.7571 48.9324 19.1486C49.3642 18.5401 49.7148 18.0261 49.9839 17.6065C50.166 17.3127 50.3636 17.1659 50.577 17.1659C50.6836 17.1659 50.7273 17.2183 50.708 17.3232C50.6926 17.4071 50.6413 17.5121 50.5542 17.6379C50.1397 18.2674 49.6963 18.9388 49.2238 19.6522C48.7551 20.3446 48.2282 21.0055 47.6431 21.6349C47.0619 22.2434 46.4059 22.7364 45.6751 23.1141C44.9657 23.4918 44.1629 23.6806 43.2669 23.6806ZM43.7096 18.1415C44.0082 18.1415 44.5288 18.0366 45.2714 17.8268C46.0179 17.596 46.7235 17.2393 47.3882 16.7567C48.0316 16.2741 48.5547 15.7496 48.9576 15.1831C49.3643 14.5956 49.6043 14.1026 49.6776 13.7039C49.7625 13.2423 49.6343 13.0115 49.2929 13.0115C49.0369 13.0115 48.6541 13.1794 48.1443 13.5151C47.6346 13.8508 46.9758 14.4173 46.1678 15.2146C45.6699 15.7181 45.1855 16.2637 44.7148 16.8511C44.2441 17.4386 43.909 17.8687 43.7096 18.1415ZM45.8693 23.8065C46.919 22.2749 47.9328 20.7642 48.9107 19.2745C49.9138 17.7638 50.9141 16.3266 51.9116 14.9628C52.4772 14.2075 52.9256 13.6829 53.257 13.3892C53.6135 13.0745 54.0371 12.9171 54.5278 12.9171C54.6985 12.9171 54.874 12.9486 55.0544 13.0115C55.2387 13.0535 55.4269 13.0745 55.6189 13.0745C55.7469 13.0745 55.8448 13.064 55.9126 13.043C55.5831 13.2108 55.1219 13.6305 54.5291 14.3019C53.9402 14.9523 53.3213 15.7076 52.6724 16.5679C52.0236 17.4281 51.4377 18.2359 50.9148 18.9912C51.4089 18.5087 51.9136 18.0261 52.429 17.5435C52.9658 17.0609 53.5413 16.5994 54.1557 16.1587C54.7487 15.7181 55.4397 15.267 56.2285 14.8054C57.0426 14.3229 57.8199 13.9242 58.5605 13.6095C59.301 13.2948 59.874 13.1374 60.2793 13.1374C60.4286 13.1374 60.5334 13.1479 60.5935 13.1689C60.5935 13.1689 60.4376 13.3787 60.1257 13.7983C59.8178 14.197 59.4207 14.732 58.9346 15.4034C58.4736 16.0538 57.9924 16.7567 57.4908 17.5121C56.9931 18.2464 56.5312 18.9598 56.1053 19.6522C55.7044 20.3236 55.4189 20.8901 55.2487 21.3517C55.1346 21.6244 55.0563 21.8762 55.0138 22.107C54.9521 22.4427 54.9756 22.663 55.0843 22.7679C55.193 22.8728 55.322 22.9253 55.4713 22.9253C55.8767 22.9253 56.3419 22.7155 56.8671 22.2958C57.3961 21.8552 57.9212 21.3202 58.4423 20.6908C58.9847 20.0613 59.4699 19.4528 59.8979 18.8654C60.3512 18.2569 60.6814 17.7953 60.8886 17.4806C61.0048 17.3127 61.0862 17.2183 61.1327 17.1973C61.1831 17.1554 61.2509 17.1344 61.3363 17.1344C61.4643 17.1344 61.5128 17.2183 61.482 17.3862C61.4627 17.4911 61.4094 17.6065 61.3223 17.7324C60.9776 18.2149 60.5621 18.7919 60.076 19.4633C59.6112 20.1347 59.095 20.7957 58.5274 21.4461C57.9636 22.0755 57.3746 22.6106 56.7602 23.0512C56.1497 23.4708 55.5351 23.6806 54.9164 23.6806C54.4898 23.6806 54.0688 23.5337 53.6535 23.24C53.2595 22.9463 53.1358 22.4007 53.2824 21.6034C53.3249 21.3726 53.3906 21.1314 53.4795 20.8796C53.5724 20.6068 53.701 20.3131 53.8656 19.9984C54.1134 19.5787 54.399 19.1276 54.7225 18.6451C55.0459 18.1625 55.5514 17.5016 56.2391 16.6623C56.4308 16.4315 56.549 16.2532 56.5935 16.1273C56.6593 16.0014 56.6999 15.8965 56.7153 15.8125C56.7616 15.5608 56.6675 15.4349 56.4328 15.4349C56.2408 15.4349 55.9335 15.5398 55.5109 15.7496C55.1097 15.9594 54.5835 16.3266 53.9323 16.8511C53.3064 17.3547 52.5352 18.0681 51.6188 18.9912C50.7237 19.9144 49.6302 21.2782 48.3384 23.0826C48.1389 23.3554 47.9412 23.5023 47.7454 23.5233C47.5709 23.5442 47.3217 23.5652 46.9978 23.5862C46.7806 23.6072 46.576 23.6177 46.384 23.6177C46.1882 23.6387 46.0166 23.7016 45.8693 23.8065ZM66.7776 23.5547C66.2016 23.5547 65.7737 23.2715 65.4939 22.705C65.4181 22.5371 65.3626 22.3168 65.3274 22.0441C65.2922 21.7713 65.3055 21.4671 65.3672 21.1314C65.402 20.9425 65.4474 20.7537 65.5034 20.5649C65.5633 20.355 65.6446 20.1452 65.7472 19.9354C65.3636 20.397 64.9171 20.9111 64.4076 21.4776C63.9233 22.0231 63.3865 22.5057 62.7973 22.9253C62.2334 23.3239 61.642 23.5233 61.0234 23.5233C60.81 23.5233 60.5918 23.4918 60.3687 23.4288C59.8236 23.261 59.4616 22.9672 59.2828 22.5476C59.1253 22.128 59.1006 21.6244 59.2086 21.0369C59.3282 20.3865 59.5874 19.6731 59.9862 18.8968C60.4062 18.1205 60.8865 17.3652 61.4269 16.6308C61.9886 15.8965 62.5417 15.267 63.0861 14.7425C63.8612 14.0081 64.7052 13.4207 65.6182 12.98C66.5312 12.5394 67.4144 12.3191 68.2678 12.3191C69.0358 12.3191 69.7244 12.5185 70.3338 12.9171C70.7618 12.3296 71.2228 11.6792 71.7166 10.9658C72.2143 10.2315 72.7101 9.5076 73.204 8.79423C73.6978 8.08086 74.1374 7.43043 74.5228 6.84295C74.912 6.23449 75.2102 5.77289 75.4175 5.45817C75.8725 4.72382 76.2561 4.26223 76.5681 4.07339C76.9054 3.86358 77.2767 3.75867 77.682 3.75867C77.9167 3.75867 78.1669 3.79014 78.4326 3.85309C78.7236 3.89505 79.0096 3.90554 79.2908 3.88456C79.1397 4.01045 78.8055 4.37762 78.2883 4.98609C77.7962 5.57357 77.1987 6.3289 76.4956 7.25209C75.7925 8.17528 75.0293 9.19288 74.2062 10.3049C73.4082 11.3959 72.6064 12.508 71.8007 13.641C71.0202 14.753 70.2813 15.8125 69.5841 16.8197C68.9121 17.8058 68.3612 18.6555 67.9313 19.3689C67.8151 19.5368 67.6235 19.883 67.3563 20.4075C67.1144 20.9111 66.9587 21.3517 66.8893 21.7293C66.8391 22.0021 66.8587 22.2434 66.9482 22.4532C67.0414 22.642 67.2374 22.7364 67.5361 22.7364C67.9414 22.7364 68.3834 22.5371 68.862 22.1385C69.3659 21.7188 69.8638 21.2153 70.3558 20.6278C70.8517 20.0193 71.3011 19.4319 71.7039 18.8654C72.1106 18.2779 72.4195 17.8163 72.6306 17.4806C72.7797 17.2498 72.9289 17.1344 73.0783 17.1344C73.2063 17.1344 73.2529 17.2288 73.2182 17.4176C73.2143 17.4386 73.2066 17.4806 73.195 17.5435C73.1873 17.5855 73.1563 17.6379 73.1021 17.7009C72.8291 18.1415 72.4621 18.687 72.0011 19.3374C71.5615 19.9879 71.0579 20.6383 70.4903 21.2887C69.9227 21.9392 69.321 22.4847 68.6853 22.9253C68.0535 23.3449 67.4176 23.5547 66.7776 23.5547ZM61.4152 22.6106C61.7139 22.6106 62.1162 22.4532 62.622 22.1385C63.1318 21.8028 63.7082 21.2782 64.3514 20.5649C65.1031 19.7256 65.9787 18.6765 66.9782 17.4176C67.9777 16.1587 68.98 14.8264 69.9852 13.4207C69.7542 13.1689 69.4573 13.043 69.0946 13.043C68.4973 13.043 67.7752 13.3157 66.9282 13.8613C66.1025 14.4068 65.2605 15.0992 64.4022 15.9384C63.5652 16.7777 62.8329 17.6274 62.2054 18.4877C61.7774 19.0752 61.4443 19.6102 61.2062 20.0928C60.9895 20.5754 60.8483 20.995 60.7827 21.3517C60.6284 22.1909 60.8392 22.6106 61.4152 22.6106ZM77.4519 10.777C77.1319 10.777 76.8845 10.6721 76.7097 10.4623C76.5602 10.2315 76.5143 9.95871 76.5722 9.64398C76.6455 9.24533 76.8692 8.89914 77.2432 8.6054C77.6172 8.31166 77.9962 8.16479 78.3802 8.16479C78.7216 8.16479 78.9796 8.26969 79.1543 8.47951C79.3291 8.68932 79.3895 8.9411 79.3354 9.23484C79.2621 9.63349 79.0365 9.99018 78.6587 10.3049C78.2808 10.6196 77.8785 10.777 77.4519 10.777ZM72.5101 23.5547C71.7208 23.5547 71.2066 23.3344 70.9676 22.8938C70.7325 22.4322 70.669 21.9077 70.777 21.3202C70.8349 21.0055 70.9248 20.6908 71.0466 20.376C71.1937 20.0403 71.3457 19.7361 71.5025 19.4633L74.6362 14.0816C74.731 13.9137 74.79 13.7669 74.8132 13.641C74.8518 13.4311 74.8312 13.2528 74.7516 13.1059C74.6758 12.9381 74.6223 12.8227 74.5912 12.7597L76.3628 12.6968C76.6867 12.6758 76.903 12.7178 77.0117 12.8227C77.1456 12.9066 77.2009 13.0115 77.1778 13.1374C77.1546 13.2633 77.0375 13.4941 76.8265 13.8298L73.0419 19.9669C73.0419 19.9669 72.9528 20.1033 72.7746 20.376C72.6217 20.6278 72.5268 20.7957 72.49 20.8796C72.3682 21.1943 72.2888 21.3936 72.2521 21.4776C72.2153 21.5615 72.195 21.6139 72.1911 21.6349C72.1873 21.6559 72.1718 21.7398 72.1448 21.8867C72.0947 22.1595 72.1162 22.3903 72.2095 22.5791C72.3241 22.7679 72.5521 22.8623 72.8934 22.8623C73.1067 22.8623 73.3637 22.7994 73.6641 22.6735C73.9646 22.5476 74.1904 22.4217 74.3416 22.2958C74.9752 21.7503 75.6291 21.0369 76.3031 20.1557C77.0024 19.2535 77.657 18.3618 78.2671 17.4806C78.391 17.2708 78.517 17.1659 78.645 17.1659C78.7516 17.1659 78.7915 17.2393 78.7645 17.3862C78.749 17.4701 78.6939 17.596 78.599 17.7638C78.3046 18.2044 77.9377 18.75 77.4981 19.4004C77.0584 20.0508 76.5548 20.7012 75.9872 21.3517C75.4448 21.9811 74.879 22.5057 74.2898 22.9253C73.7007 23.3449 73.1074 23.5547 72.5101 23.5547ZM74.0568 23.8065C75.1065 22.2749 76.1203 20.7642 77.0982 19.2745C78.1013 17.7638 79.1016 16.3266 80.0991 14.9628C80.6647 14.2075 81.1131 13.6829 81.4445 13.3892C81.801 13.0745 82.2246 12.9171 82.7153 12.9171C82.886 12.9171 83.0615 12.9486 83.2419 13.0115C83.4262 13.0535 83.6144 13.0745 83.8064 13.0745C83.9344 13.0745 84.0323 13.064 84.1001 13.043C83.7706 13.2108 83.3094 13.6305 82.7166 14.3019C82.1277 14.9523 81.5088 15.7076 80.8599 16.5679C80.2111 17.4281 79.6252 18.2359 79.1023 18.9912C79.5964 18.5087 80.1011 18.0261 80.6165 17.5435C81.1533 17.0609 81.7288 16.5994 82.3432 16.1587C82.9362 15.7181 83.6272 15.267 84.416 14.8054C85.2301 14.3229 86.0074 13.9242 86.748 13.6095C87.4885 13.2948 88.0615 13.1374 88.4668 13.1374C88.6161 13.1374 88.7209 13.1479 88.781 13.1689C88.781 13.1689 88.6251 13.3787 88.3132 13.7983C88.0053 14.197 87.6082 14.732 87.1221 15.4034C86.6611 16.0538 86.1799 16.7567 85.6783 17.5121C85.1806 18.2464 84.7187 18.9598 84.2928 19.6522C83.8919 20.3236 83.6064 20.8901 83.4362 21.3517C83.3221 21.6244 83.2438 21.8762 83.2013 22.107C83.1396 22.4427 83.1631 22.663 83.2718 22.7679C83.3805 22.8728 83.5095 22.9253 83.6588 22.9253C84.0642 22.9253 84.5294 22.7155 85.0546 22.2958C85.5836 21.8552 86.1087 21.3202 86.6298 20.6908C87.1722 20.0613 87.6574 19.4528 88.0854 18.8654C88.5387 18.2569 88.8689 17.7953 89.0761 17.4806C89.1923 17.3127 89.2737 17.2183 89.3202 17.1973C89.3706 17.1554 89.4384 17.1344 89.5238 17.1344C89.6518 17.1344 89.7003 17.2183 89.6695 17.3862C89.6502 17.4911 89.5969 17.6065 89.5098 17.7324C89.1651 18.2149 88.7496 18.7919 88.2635 19.4633C87.7987 20.1347 87.2825 20.7957 86.7149 21.4461C86.1511 22.0755 85.5621 22.6106 84.9477 23.0512C84.3372 23.4708 83.7226 23.6806 83.1039 23.6806C82.6773 23.6806 82.2563 23.5337 81.841 23.24C81.447 22.9463 81.3233 22.4007 81.4699 21.6034C81.5124 21.3726 81.5781 21.1314 81.667 20.8796C81.7599 20.6068 81.8885 20.3131 82.0531 19.9984C82.3009 19.5787 82.5865 19.1276 82.91 18.6451C83.2334 18.1625 83.7389 17.5016 84.4266 16.6623C84.6183 16.4315 84.7365 16.2532 84.781 16.1273C84.8468 16.0014 84.8874 15.8965 84.9028 15.8125C84.9491 15.5608 84.855 15.4349 84.6203 15.4349C84.4283 15.4349 84.121 15.5398 83.6984 15.7496C83.2972 15.9594 82.771 16.3266 82.1198 16.8511C81.4939 17.3547 80.7227 18.0681 79.8063 18.9912C78.9112 19.9144 77.8177 21.2782 76.5259 23.0826C76.3264 23.3554 76.1287 23.5023 75.9329 23.5233C75.7584 23.5442 75.5092 23.5652 75.1853 23.5862C74.9681 23.6072 74.7635 23.6177 74.5715 23.6177C74.3757 23.6387 74.2041 23.7016 74.0568 23.8065ZM83.8708 33.5944C81.8442 33.5944 80.9813 32.7761 81.2823 31.1395C81.425 30.3632 81.8297 29.6708 82.4963 29.0624C83.1628 28.4539 83.9206 27.9294 84.7696 27.4888C85.9521 26.8593 87.0793 26.3558 88.1514 25.9781C89.2236 25.6004 90.2346 25.2647 91.1846 24.971C92.1521 24.6982 93.0721 24.394 93.9445 24.0583C94.533 22.9463 95.0031 21.7818 95.3549 20.5649C95.5347 19.9354 95.667 19.3899 95.7519 18.9283C95.8406 18.4457 95.8665 18.131 95.8295 17.9841C95.5138 18.4247 95.1061 18.9598 94.6063 19.5892C94.1066 20.2187 93.5554 20.8376 92.9529 21.4461C92.3542 22.0336 91.7302 22.5266 91.0808 22.9253C90.4529 23.3239 89.8402 23.5233 89.2429 23.5233C89.0295 23.5233 88.8327 23.4918 88.6522 23.4288C88.1012 23.1771 87.7295 22.8204 87.537 22.3588C87.3659 21.8972 87.3344 21.3726 87.4424 20.7852C87.616 19.841 88.0805 18.8234 88.8358 17.7324C89.5911 16.6413 90.4357 15.6447 91.3696 14.7425C92.1233 14.0081 92.9567 13.4207 93.8697 12.98C94.7827 12.5394 95.6659 12.3191 96.5193 12.3191C97.5006 12.3191 98.3581 12.6443 99.0918 13.2948C99.3655 13.5465 99.4754 13.8193 99.4214 14.113C99.3635 14.4278 99.2066 14.5851 98.9506 14.5851C98.7372 14.5851 98.613 14.4487 98.5778 14.176C98.4219 13.3997 98.0133 13.0115 97.3519 13.0115C96.8186 13.0115 96.1682 13.2423 95.4006 13.7039C94.6369 14.1445 93.8947 14.7005 93.1739 15.3719C92.5577 15.9384 91.9367 16.5889 91.311 17.3232C90.7067 18.0576 90.1789 18.7814 89.7277 19.4948C89.2978 20.2082 89.0347 20.8271 88.9382 21.3517C88.8726 21.7084 88.902 22.0126 89.0264 22.2644C89.1507 22.5161 89.3943 22.642 89.7569 22.642C90.2476 22.642 90.802 22.4112 91.4203 21.9496C92.0598 21.488 92.6867 20.9215 93.3008 20.2501C93.9363 19.5787 94.499 18.8968 94.989 18.2044C95.5003 17.5121 95.8731 16.9351 96.1073 16.4735C96.3454 15.9909 96.6021 15.6972 96.8774 15.5922C97.1565 15.4664 97.4241 15.4034 97.6801 15.4034C97.9361 15.4034 98.161 15.3405 98.3548 15.2146C98.3553 15.6762 98.3218 16.1483 98.2544 16.6308C98.2121 17.0924 98.1467 17.5645 98.0579 18.0471C97.7608 19.6627 97.2485 21.2887 96.5208 22.9253C96.9589 22.6315 97.4114 22.3168 97.8785 21.9811C98.3707 21.6244 98.8028 21.2468 99.1748 20.8481C99.8393 20.1347 100.354 19.4843 100.718 18.8968C101.107 18.2884 101.407 17.8163 101.618 17.4806C101.785 17.2708 101.943 17.1659 102.092 17.1659C102.22 17.1659 102.272 17.2288 102.249 17.3547C102.23 17.4596 102.164 17.5855 102.052 17.7324C101.314 18.8444 100.648 19.799 100.053 20.5963C99.4624 21.3726 98.8502 22.0336 98.2165 22.5791C97.5867 23.1036 96.8424 23.5547 95.9836 23.9324C95.4571 24.9395 94.7503 25.9991 93.8631 27.1111C92.9759 28.2231 91.983 29.2722 90.8843 30.2583C89.7857 31.2445 88.6364 32.0417 87.4365 32.6502C86.2327 33.2797 85.0442 33.5944 83.8708 33.5944ZM83.2186 32.9649C83.6879 32.9649 84.1979 32.86 84.7485 32.6502C85.3165 32.4614 85.8603 32.2306 86.3798 31.9578C86.8993 31.6851 87.3044 31.4543 87.5951 31.2654C88.1552 30.8878 88.7434 30.4157 89.3596 29.8492C89.9757 29.2827 90.5241 28.7372 91.0045 28.2126C91.4598 27.7091 91.8995 27.174 92.3237 26.6075C92.7653 26.062 93.1537 25.5165 93.4886 24.971C93.3064 25.0339 93.0796 25.1074 92.8081 25.1913C92.558 25.2752 92.3758 25.3382 92.2614 25.3801C91.515 25.6109 90.6881 25.8732 89.7807 26.1669C88.8908 26.4816 87.9971 26.8174 87.0995 27.174C86.1981 27.5517 85.3655 27.9608 84.6018 28.4015C83.9312 28.8001 83.344 29.3246 82.8404 29.9751C82.3155 30.6255 82.0086 31.192 81.9199 31.6746C81.8543 32.0313 81.9263 32.3355 82.136 32.5873C82.3244 32.839 82.6853 32.9649 83.2186 32.9649Z" fill="#B98A7E"/>
</svg>
