<svg width="266" height="45" viewBox="0 0 266 45" fill="none" xmlns="http://www.w3.org/2000/svg">
<path d="M14.8656 41.2906C13.3989 41.2906 12.0381 41.0775 10.7831 40.6513C8.89768 40.0284 7.52819 38.6843 6.67467 36.6189C5.85448 34.5535 5.69759 32.1439 6.20401 29.3901C6.64411 26.9969 7.59928 24.5217 9.06952 21.9646C8.14151 21.2106 7.42096 20.3254 6.90785 19.3091C6.39474 18.2929 6.19511 17.1126 6.30895 15.7685C6.32385 15.5062 6.34938 15.2768 6.38556 15.0801C6.42776 14.8506 6.46996 14.6211 6.51216 14.3916C6.92814 12.1295 7.81558 10.1133 9.17446 8.34303C10.5667 6.57271 12.2577 5.08106 14.2474 3.86806C16.2431 2.62229 18.3983 1.68796 20.7128 1.06507C23.0334 0.409395 25.327 0.0815594 27.5937 0.0815594C29.827 0.0815594 31.9334 0.409395 33.9128 1.06507C35.8923 1.72074 37.572 2.73703 38.9522 4.11394C40.3656 5.49085 41.3264 7.24478 41.8346 9.37571C42.3821 11.4739 42.3178 13.9982 41.6419 16.9487C43.1714 16.0636 44.6295 15.1128 46.0164 14.0966C47.4033 13.0803 48.525 11.9656 49.3814 10.7526C49.6083 10.4248 49.8551 10.2609 50.1218 10.2609C50.3218 10.2609 50.4007 10.3756 50.3585 10.6051C50.3525 10.6379 50.3177 10.7362 50.2542 10.9002C50.1968 11.0313 50.1257 11.146 50.0409 11.2444C48.8423 12.6869 47.5088 14.0474 46.0403 15.3259C44.5719 16.6045 42.9306 17.7355 41.1164 18.719C40.9504 19.4403 40.683 20.2599 40.3142 21.1778C39.9848 22.063 39.5629 22.9973 39.0488 23.9808C38.0477 25.9806 36.6602 27.9968 34.8864 30.0294C33.146 32.062 31.169 33.9306 28.9555 35.6354C26.742 37.3401 24.4252 38.7007 22.005 39.7169C19.5787 40.766 17.1989 41.2906 14.8656 41.2906ZM19.8706 23.0465C22.6706 23.0465 25.6929 22.6531 28.9376 21.8663C32.2217 21.0467 35.36 19.932 38.3525 18.5223C38.4976 18.0962 38.6063 17.6864 38.6786 17.293C38.757 16.8668 38.8324 16.457 38.9047 16.0636C39.3991 13.3753 39.4211 11.0805 38.9707 9.17901C38.5598 7.24478 37.7991 5.67116 36.6889 4.45817C35.5786 3.24518 34.2414 2.36002 32.6772 1.8027C31.1191 1.21259 29.44 0.91754 27.64 0.91754C25.7066 0.91754 23.7327 1.22898 21.7182 1.85187C19.7036 2.47476 17.8212 3.37631 16.0708 4.55652C14.3264 5.70395 12.8369 7.09725 11.6021 8.73643C10.4007 10.3756 9.61307 12.2115 9.23929 14.2441C9.12474 14.867 9.05718 15.5062 9.03661 16.1619C8.95928 17.67 9.39686 18.9157 10.3493 19.8993C10.9969 18.9157 11.8322 17.8175 12.8552 16.6045C13.8843 15.3587 15.0301 14.1129 16.2925 12.8672C17.5943 11.5886 18.9416 10.4248 20.3346 9.37571C21.7608 8.32664 23.1812 7.49066 24.5958 6.86777C26.0497 6.21209 27.4433 5.88426 28.7766 5.88426C29.3433 5.88426 29.8979 5.94982 30.4404 6.08096C31.0163 6.21209 31.5408 6.44158 32.0138 6.76942C32.2504 6.93333 32.3566 7.08086 32.3325 7.21199C32.3144 7.31035 32.216 7.3923 32.0372 7.45787C31.8918 7.52344 31.7085 7.52344 31.4872 7.45787C31.078 7.32674 30.6067 7.26117 30.0734 7.26117C28.8734 7.26117 27.5904 7.62179 26.2245 8.34303C24.8645 9.03149 23.4957 9.94943 22.118 11.0969C20.7464 12.2115 19.44 13.4245 18.1989 14.7358C16.9637 16.0144 15.8483 17.2766 14.8525 18.5223C13.8961 19.7353 13.1396 20.768 12.5828 21.6204C14.4413 22.5711 16.8706 23.0465 19.8706 23.0465ZM15.4826 40.1104C17.3493 40.1104 19.2503 39.6514 21.1858 38.7334C23.1546 37.8155 25.067 36.5697 26.9231 34.9961C28.8125 33.4225 30.5517 31.6686 32.1407 29.7343C33.7297 27.8001 35.0778 25.8167 36.1849 23.7841C36.4874 23.2268 36.7762 22.6531 37.0514 22.063C37.3326 21.4401 37.5412 20.85 37.677 20.2927C34.7177 21.7024 31.6355 22.7842 28.4301 23.5382C25.2248 24.2923 22.2221 24.6693 19.4221 24.6693C16.3221 24.6693 13.7035 24.2267 11.5663 23.3415C10.0567 25.9314 9.07281 28.4722 8.61463 30.9637C8.28305 32.7668 8.31796 34.3896 8.71936 35.8321C9.12076 37.2746 9.97181 38.3564 11.2725 39.0777C12.6126 39.7661 14.0159 40.1104 15.4826 40.1104ZM35.1183 38.6843C36.7584 36.2911 38.3425 33.9306 39.8705 31.603C41.4379 29.2426 43.0009 26.9969 44.5594 24.866C45.4431 23.6858 46.1438 22.8662 46.6616 22.4072C47.2187 21.9154 47.8805 21.6696 48.6472 21.6696C48.9139 21.6696 49.1882 21.7187 49.4701 21.8171C49.758 21.8827 50.052 21.9154 50.352 21.9154C50.552 21.9154 50.705 21.8991 50.811 21.8663C50.2961 22.1285 49.5756 22.7842 48.6493 23.8333C47.7291 24.8496 46.7621 26.0298 45.7482 27.3739C44.7344 28.718 43.8189 29.9802 43.0019 31.1604C43.7739 30.4064 44.5625 29.6524 45.3679 28.8984C46.2065 28.1443 47.1058 27.4231 48.0658 26.7346C48.9924 26.0462 50.072 25.3413 51.3046 24.6201C52.5766 23.8661 53.7912 23.2432 54.9483 22.7514C56.1054 22.2597 57.0006 22.0138 57.6339 22.0138C57.8672 22.0138 58.0309 22.0302 58.1249 22.063C58.1249 22.063 57.8812 22.3908 57.394 23.0465C56.9128 23.6694 56.2924 24.5054 55.5328 25.5544C54.8126 26.5707 54.0606 27.669 53.2769 28.8492C52.4992 29.9966 51.7776 31.1112 51.112 32.1931C50.4857 33.2422 50.0396 34.1273 49.7737 34.8486C49.5953 35.2748 49.4729 35.6682 49.4066 36.0288C49.3102 36.5533 49.3469 36.8976 49.5167 37.0615C49.6866 37.2254 49.8882 37.3074 50.1215 37.3074C50.7548 37.3074 51.4818 36.9795 52.3024 36.3238C53.129 35.6354 53.9494 34.7994 54.7636 33.8159C55.6111 32.8324 56.3693 31.8817 57.0381 30.9637C57.7462 30.013 58.2622 29.2918 58.586 28.8C58.7675 28.5377 58.8947 28.3902 58.9673 28.3574C59.0461 28.2919 59.1521 28.2591 59.2854 28.2591C59.4854 28.2591 59.5613 28.3902 59.5131 28.6525C59.4829 28.8164 59.3998 28.9967 59.2636 29.1934C58.725 29.9474 58.0758 30.849 57.3162 31.8981C56.59 32.9471 55.7834 33.9798 54.8965 34.9961C54.0157 35.9796 53.0953 36.8156 52.1353 37.5041C51.1814 38.1597 50.2211 38.4876 49.2545 38.4876C48.5878 38.4876 47.93 38.2581 47.2811 37.7991C46.6655 37.3401 46.4722 36.4878 46.7013 35.242C46.7676 34.8814 46.8703 34.5044 47.0093 34.111C47.1543 33.6848 47.3554 33.2258 47.6125 32.734C47.9998 32.0784 48.446 31.3735 48.9514 30.6195C49.4567 29.8655 50.2466 28.8328 51.3211 27.5214C51.6207 27.1608 51.8053 26.8822 51.8748 26.6855C51.9777 26.4888 52.0411 26.3248 52.0652 26.1937C52.1376 25.8003 51.9904 25.6036 51.6238 25.6036C51.3238 25.6036 50.8436 25.7675 50.1833 26.0954C49.5564 26.4232 48.7342 26.9969 47.7168 27.8165C46.7388 28.6033 45.5338 29.7179 44.1019 31.1604C42.7033 32.6029 40.9948 34.7338 38.9763 37.5532C38.6646 37.9794 38.3557 38.2089 38.0497 38.2417C37.777 38.2745 37.3876 38.3073 36.8816 38.34C36.5422 38.3728 36.2226 38.3892 35.9226 38.3892C35.6165 38.422 35.3484 38.5203 35.1183 38.6843ZM60.2104 38.4384C58.8104 38.4384 57.9267 38.0778 57.5593 37.3565C57.198 36.6025 57.1108 35.7173 57.2977 34.7011C57.4906 33.652 57.8395 32.5701 58.3445 31.4555C58.8495 30.3408 59.288 29.4065 59.66 28.6525C60.5309 26.8166 61.5563 24.866 62.7361 22.8006C63.9553 20.7025 65.2321 18.6535 66.5665 16.6537C67.9403 14.6211 69.2582 12.8016 70.5203 11.1952C71.5221 9.91664 72.5136 8.96592 73.4948 8.34303C74.5154 7.68736 75.359 7.35952 76.0256 7.35952C76.559 7.35952 76.9395 7.55622 77.1671 7.94963C77.4341 8.31025 77.4983 8.86757 77.3597 9.62159C77.2632 10.1461 77.0486 10.769 76.716 11.4903C76.4167 12.2115 75.966 13.0311 75.3639 13.949C73.727 16.5061 71.8567 19.0633 69.7531 21.6204C67.6829 24.1775 65.2095 26.5707 62.3328 28.8C62.1211 29.2262 61.8444 29.7343 61.5025 30.3244C61.2 30.8818 60.9112 31.4555 60.636 32.0456C60.2732 32.9307 60.0346 33.6848 59.92 34.3077C59.7331 35.3239 59.7914 36.0944 60.095 36.6189C60.4379 37.1107 60.9093 37.3565 61.5093 37.3565C62.0427 37.3565 62.6425 37.1762 63.3088 36.8156C63.9812 36.4222 64.6503 35.8649 65.3163 35.1436C66.3273 33.9962 67.258 32.8324 68.1083 31.6522C68.9981 30.4392 69.6699 29.5049 70.1238 28.8492C70.3901 28.4886 70.6399 28.3083 70.8733 28.3083C71.0399 28.3083 71.1052 28.4066 71.069 28.6033C71.0389 28.7672 70.9557 28.9475 70.8195 29.1442C70.399 29.7999 69.8422 30.6523 69.1493 31.7014C68.4957 32.7176 67.7058 33.7503 66.7796 34.7994C65.8927 35.8157 64.8829 36.6845 63.7503 37.4057C62.657 38.0942 61.4771 38.4384 60.2104 38.4384ZM63.0222 27.2264C64.4453 26.0134 65.8682 24.6201 67.2909 23.0465C68.7196 21.4401 70.0741 19.7845 71.3542 18.0798C72.6738 16.3422 73.8085 14.7031 74.7586 13.1622C75.0823 12.6705 75.3651 12.1295 75.607 11.5394C75.8822 10.9493 76.0559 10.4576 76.1283 10.0642C76.2127 9.6052 76.1382 9.37571 75.9049 9.37571C75.7715 9.37571 75.5474 9.50685 75.2325 9.76912C74.9237 9.9986 74.4983 10.4084 73.9564 10.9985C73.1724 11.8181 72.2674 12.9327 71.2415 14.3424C70.2489 15.7521 69.2216 17.2602 68.1595 18.8666C67.0975 20.473 66.1111 22.0302 65.2005 23.5382C64.2958 25.0135 63.5697 26.2429 63.0222 27.2264ZM78.6536 18.3256C78.1536 18.3256 77.767 18.1617 77.494 17.8339C77.2603 17.4733 77.1887 17.0471 77.2791 16.5553C77.3937 15.9324 77.7431 15.3915 78.3275 14.9325C78.9119 14.4736 79.5041 14.2441 80.1041 14.2441C80.6375 14.2441 81.0407 14.408 81.3137 14.7358C81.5867 15.0637 81.6811 15.4571 81.5967 15.916C81.4821 16.5389 81.1296 17.0963 80.5392 17.588C79.9488 18.0798 79.3202 18.3256 78.6536 18.3256ZM70.932 38.2909C69.6987 38.2909 68.8953 37.9466 68.522 37.2582C68.1546 36.5369 68.0553 35.7173 68.2241 34.7994C68.3145 34.3077 68.455 33.8159 68.6454 33.3241C68.8752 32.7996 69.1126 32.3242 69.3577 31.8981L74.254 23.4891C74.4023 23.2268 74.4945 22.9973 74.5306 22.8006C74.5909 22.4728 74.5588 22.1941 74.4344 21.9646C74.3159 21.7024 74.2324 21.522 74.1838 21.4237L76.9519 21.3253C77.458 21.2926 77.7959 21.3581 77.9658 21.522C78.175 21.6532 78.2615 21.8171 78.2253 22.0138C78.1891 22.2105 78.0062 22.5711 77.6764 23.0957L71.763 32.6849C71.763 32.6849 71.6238 32.898 71.3454 33.3241C71.1064 33.7175 70.9582 33.9798 70.9007 34.111C70.7103 34.6027 70.5863 34.9141 70.5289 35.0453C70.4714 35.1764 70.4397 35.2584 70.4337 35.2912C70.4276 35.3239 70.4035 35.4551 70.3613 35.6846C70.283 36.1108 70.3166 36.4714 70.4624 36.7664C70.6415 37.0615 70.9977 37.209 71.531 37.209C71.8643 37.209 72.2657 37.1107 72.7353 36.9139C73.2048 36.7172 73.5576 36.5205 73.7938 36.3238C74.7839 35.4715 75.8055 34.3568 76.8587 32.9799C77.9513 31.5702 78.9742 30.1769 79.9274 28.8C80.121 28.4722 80.3178 28.3083 80.5178 28.3083C80.6845 28.3083 80.7467 28.423 80.7045 28.6525C80.6804 28.7836 80.5942 28.9803 80.446 29.2426C79.986 29.931 79.4126 30.7834 78.7257 31.7997C78.0388 32.816 77.252 33.8323 76.3651 34.8486C75.5175 35.8321 74.6335 36.6517 73.7129 37.3074C72.7923 37.963 71.8654 38.2909 70.932 38.2909ZM74.3488 38.6843C75.9889 36.2911 77.5729 33.9306 79.101 31.603C80.6684 29.2426 82.2313 26.9969 83.7899 24.866C84.6736 23.6858 85.3743 22.8662 85.892 22.4072C86.4491 21.9154 87.111 21.6696 87.8777 21.6696C88.1444 21.6696 88.4186 21.7187 88.7006 21.8171C88.9885 21.8827 89.2825 21.9154 89.5825 21.9154C89.7825 21.9154 89.9355 21.8991 90.0415 21.8663C89.5266 22.1285 88.806 22.7842 87.8798 23.8333C86.9596 24.8496 85.9925 26.0298 84.9787 27.3739C83.9648 28.718 83.0494 29.9802 82.2324 31.1604C83.0044 30.4064 83.793 29.6524 84.5983 28.8984C85.437 28.1443 86.3363 27.4231 87.2962 26.7346C88.2228 26.0462 89.3025 25.3413 90.5351 24.6201C91.8071 23.8661 93.0216 23.2432 94.1787 22.7514C95.3358 22.2597 96.231 22.0138 96.8644 22.0138C97.0977 22.0138 97.2614 22.0302 97.3553 22.063C97.3553 22.063 97.1117 22.3908 96.6245 23.0465C96.1433 23.6694 95.5229 24.5054 94.7633 25.5544C94.0431 26.5707 93.2911 27.669 92.5074 28.8492C91.7297 29.9966 91.0081 31.1112 90.3425 32.1931C89.7162 33.2422 89.2701 34.1273 89.0041 34.8486C88.8258 35.2748 88.7034 35.6682 88.6371 36.0288C88.5406 36.5533 88.5773 36.8976 88.7472 37.0615C88.917 37.2254 89.1186 37.3074 89.352 37.3074C89.9853 37.3074 90.7123 36.9795 91.5328 36.3238C92.3594 35.6354 93.1798 34.7994 93.994 33.8159C94.8416 32.8324 95.5997 31.8817 96.2685 30.9637C96.9767 30.013 97.4927 29.2918 97.8164 28.8C97.998 28.5377 98.1251 28.3902 98.1978 28.3574C98.2765 28.2919 98.3826 28.2591 98.5159 28.2591C98.7159 28.2591 98.7918 28.3902 98.7436 28.6525C98.7134 28.8164 98.6303 28.9967 98.4941 29.1934C97.9554 29.9474 97.3063 30.849 96.5467 31.8981C95.8205 32.9471 95.0139 33.9798 94.127 34.9961C93.2461 35.9796 92.3257 36.8156 91.3658 37.5041C90.4119 38.1597 89.4516 38.4876 88.4849 38.4876C87.8183 38.4876 87.1605 38.2581 86.5115 37.7991C85.8959 37.3401 85.7027 36.4878 85.9318 35.242C85.9981 34.8814 86.1008 34.5044 86.2398 34.111C86.3848 33.6848 86.5859 33.2258 86.843 32.734C87.2302 32.0784 87.6765 31.3735 88.1818 30.6195C88.6872 29.8655 89.4771 28.8328 90.5516 27.5214C90.8512 27.1608 91.0358 26.8822 91.1053 26.6855C91.2081 26.4888 91.2716 26.3248 91.2957 26.1937C91.3681 25.8003 91.2209 25.6036 90.8542 25.6036C90.5542 25.6036 90.0741 25.7675 89.4138 26.0954C88.7868 26.4232 87.9647 26.9969 86.9473 27.8165C85.9693 28.6033 84.7643 29.7179 83.3324 31.1604C81.9338 32.6029 80.2252 34.7338 78.2068 37.5532C77.895 37.9794 77.5862 38.2089 77.2802 38.2417C77.0075 38.2745 76.6181 38.3073 76.1121 38.34C75.7727 38.3728 75.453 38.3892 75.153 38.3892C74.847 38.422 74.5789 38.5203 74.3488 38.6843ZM100.482 38.4876C99.2485 38.4876 98.2042 38.0942 97.3488 37.3074C96.5269 36.5205 96.2636 35.3239 96.559 33.7175C96.8303 32.2423 97.4863 30.6687 98.5271 28.9967C99.574 27.292 100.782 25.8003 102.15 24.5217C103.322 23.4071 104.574 22.4892 105.906 21.7679C107.239 21.0467 108.439 20.6861 109.505 20.6861C110.239 20.6861 110.836 20.8828 111.297 21.2762C111.785 21.7024 111.957 22.3088 111.812 23.0957C111.662 23.9152 111.179 24.8168 110.365 25.8003C109.551 26.7838 108.482 27.7018 107.159 28.5541C106.592 28.9147 105.896 29.259 105.069 29.5868C104.242 29.9146 103.424 30.1933 102.615 30.4228C101.812 30.6195 101.161 30.7178 100.661 30.7178C100.422 31.1112 100.158 31.6358 99.8712 32.2915C99.6173 32.9471 99.4271 33.6192 99.3005 34.3077C99.1498 35.1272 99.1808 35.8649 99.3935 36.5205C99.6063 37.1762 100.163 37.5041 101.063 37.5041C102.163 37.5041 103.22 37.1926 104.234 36.5697C105.249 35.9468 106.191 35.1764 107.06 34.2585C107.934 33.3078 108.693 32.357 109.334 31.4063C110.009 30.4556 110.557 29.6524 110.977 28.9967C111.262 28.5377 111.57 28.3083 111.904 28.3083C112.07 28.3083 112.139 28.3902 112.109 28.5541C112.084 28.6853 112.004 28.8492 111.868 29.0459C111.221 30.0294 110.528 31.0785 109.789 32.1931C109.057 33.275 108.234 34.3077 107.32 35.2912C106.411 36.2419 105.386 37.0123 104.245 37.6024C103.136 38.1925 101.882 38.4876 100.482 38.4876ZM101.173 29.8327C101.64 29.8327 102.454 29.6688 103.614 29.3409C104.78 28.9803 105.883 28.423 106.921 27.669C107.927 26.9149 108.744 26.0954 109.373 25.2102C110.009 24.2923 110.384 23.5218 110.498 22.899C110.631 22.1777 110.431 21.8171 109.897 21.8171C109.497 21.8171 108.899 22.0794 108.103 22.6039C107.306 23.1284 106.277 24.0136 105.014 25.2594C104.236 26.0462 103.48 26.8986 102.744 27.8165C102.009 28.7344 101.485 29.4065 101.173 29.8327ZM139.474 44.7328C136.241 44.7328 133.489 44.11 131.218 42.8642C128.941 41.6512 127.281 39.9792 126.24 37.8483C125.238 35.6846 124.987 33.2422 125.487 30.5211C125.801 28.8164 126.423 27.0625 127.355 25.2594C127.863 24.3087 128.5 23.4727 129.266 22.7514C130.032 22.0302 130.807 21.4401 131.592 20.9811C132.376 20.5221 133.03 20.2271 133.555 20.096C133.939 19.9976 134.182 19.9484 134.282 19.9484C134.515 19.9484 134.402 20.1123 133.941 20.4402C133.52 20.7352 132.993 21.0631 132.36 21.4237C131.649 21.8499 130.798 22.4892 129.808 23.3415C128.818 24.1939 128.019 25.4561 127.411 27.128C127.272 27.5214 127.15 27.9148 127.044 28.3083C126.939 28.7017 126.853 29.0787 126.786 29.4393C126.395 31.5702 126.531 33.4553 127.196 35.0945C127.901 36.7009 128.937 38.045 130.305 39.1268C131.673 40.2087 133.222 41.0283 134.953 41.5856C136.717 42.1429 138.449 42.4216 140.149 42.4216C142.849 42.4216 145.445 41.8971 147.938 40.848C150.425 39.8317 152.784 38.422 155.016 36.6189C157.281 34.8158 159.394 32.7504 161.356 30.4228C163.323 28.0624 165.131 25.5708 166.78 22.9481C166.513 22.9481 166.13 22.9481 165.63 22.9481C165.136 22.9153 164.589 22.899 163.989 22.899C163.089 22.899 162.094 22.9645 161.003 23.0957C159.952 23.194 158.923 23.4399 157.917 23.8333C156.951 24.1939 156.112 24.7676 155.401 25.5544C155.159 25.7839 154.954 25.8987 154.787 25.8987C154.654 25.8987 154.569 25.8167 154.533 25.6528C154.496 25.4889 154.546 25.3085 154.682 25.1118C155.802 23.3743 157.119 22.1941 158.633 21.5712C160.148 20.9483 161.772 20.6369 163.505 20.6369C164.238 20.6369 164.963 20.6861 165.678 20.7844C166.433 20.85 167.164 20.9483 167.874 21.0795C168.733 19.6698 169.659 18.2601 170.651 16.8504C171.644 15.4407 172.602 14.1293 173.525 12.9163C174.448 11.7033 175.268 10.6871 175.986 9.86747C176.709 9.01509 177.211 8.45777 177.493 8.1955C175.553 7.14643 173.53 6.17931 171.427 5.29415C169.323 4.409 167.068 3.8025 164.661 3.47466C164.173 3.4091 163.682 3.35992 163.188 3.32714C162.694 3.29435 162.214 3.27796 161.747 3.27796C159.547 3.27796 157.517 3.62219 155.657 4.31064C153.797 4.9991 152.168 5.88426 150.769 6.96612C149.376 8.01519 148.252 9.14623 147.395 10.3592C146.545 11.5394 146.023 12.6541 145.83 13.7032C145.577 15.0801 145.896 16.0636 146.788 16.6537C147.321 17.0143 147.873 17.2766 148.443 17.4405C149.046 17.6044 149.631 17.6864 150.198 17.6864C151.464 17.6864 152.663 17.4241 153.792 16.8996C154.922 16.375 155.844 15.8013 156.559 15.1784C157.313 14.5227 157.72 14.031 157.78 13.7032C157.84 13.3753 157.992 13.0967 158.234 12.8672C158.482 12.6049 158.673 12.4738 158.806 12.4738C158.94 12.4738 158.985 12.5885 158.943 12.818C158.913 12.9819 158.821 13.2114 158.666 13.5064C157.853 15.2112 156.595 16.5225 154.893 17.4405C153.23 18.3256 151.565 18.7682 149.899 18.7682C149.199 18.7682 148.514 18.6863 147.844 18.5223C147.207 18.3584 146.619 18.1125 146.08 17.7847C145.094 17.1618 144.422 16.375 144.064 15.4243C143.711 14.4408 143.637 13.3917 143.842 12.2771C144.078 10.9985 144.652 9.68716 145.566 8.34303C146.486 6.96612 147.665 5.72034 149.103 4.6057C150.581 3.45827 152.266 2.54033 154.16 1.85187C156.059 1.13063 158.125 0.770015 160.359 0.770015C162.059 0.770015 163.907 1.04868 165.905 1.606C168.539 2.32724 170.923 3.22878 173.057 4.31064C175.198 5.35972 176.947 6.35962 178.306 7.31034C178.587 7.04808 179.034 6.70385 179.646 6.27766C180.257 5.85147 180.98 5.63838 181.813 5.63838C182.113 5.63838 182.454 5.68756 182.836 5.78591C183.118 5.88426 183.305 6.04818 183.396 6.27766C183.52 6.50715 183.561 6.73663 183.519 6.96612C183.465 7.26117 183.338 7.4087 183.138 7.4087C183.004 7.4087 182.831 7.26117 182.619 6.96612C182.404 6.86777 182.163 6.81859 181.896 6.81859C181.463 6.81859 181.025 6.93333 180.583 7.16282C180.141 7.3923 179.745 7.63818 179.397 7.90045C179.943 8.1955 180.663 8.53973 181.557 8.93314C182.485 9.32654 183.513 9.71994 184.64 10.1133C185.768 10.5067 186.908 10.8346 188.059 11.0969C189.251 11.3263 190.363 11.4411 191.396 11.4411C192.263 11.4411 193.067 11.3263 193.809 11.0969C194.552 10.8674 195.13 10.4412 195.545 9.81829C195.926 9.1954 196.233 8.88396 196.466 8.88396C196.633 8.88396 196.683 9.06427 196.617 9.42489C196.599 9.52324 196.581 9.62159 196.563 9.71994C196.545 9.81829 196.51 9.91664 196.458 10.015C196.162 10.9002 195.474 11.6542 194.392 12.2771C193.317 12.8672 192.096 13.1622 190.73 13.1622C190.53 13.1622 190.313 13.1622 190.08 13.1622C189.886 13.1294 189.675 13.0967 189.448 13.0639C187.575 12.736 185.862 12.2607 184.31 11.6378C182.758 11.0149 181.466 10.4248 180.436 9.86747C179.438 9.31015 178.785 8.96592 178.475 8.83478C177.192 10.015 175.989 11.3919 174.866 12.9655C173.743 14.5391 172.723 16.0964 171.807 17.6372C170.923 19.178 170.132 20.4894 169.433 21.5712C170.442 21.7024 171.541 21.8007 172.729 21.8663C173.956 21.8991 175.103 21.9154 176.17 21.9154C176.703 21.9154 177.187 21.9154 177.62 21.9154C178.093 21.8827 178.496 21.8663 178.829 21.8663H179.129C179.796 21.8663 180.108 21.981 180.066 22.2105C180.024 22.44 179.601 22.6531 178.798 22.8498C178.274 22.9809 177.406 23.0793 176.194 23.1448C175.015 23.2104 173.792 23.2432 172.526 23.2432C171.759 23.2432 171.029 23.2268 170.335 23.194C169.641 23.1612 169.05 23.112 168.562 23.0465C167.518 24.9151 166.363 26.8494 165.095 28.8492C163.827 30.849 162.368 32.7996 160.719 34.7011C159.108 36.5697 157.265 38.2581 155.187 39.7661C153.137 41.307 150.814 42.5199 148.218 43.4051C145.622 44.2903 142.707 44.7328 139.474 44.7328ZM180.468 38.4384C179.068 38.4384 178.185 38.0778 177.817 37.3565C177.456 36.6025 177.369 35.7173 177.555 34.7011C177.748 33.652 178.097 32.5701 178.602 31.4555C179.107 30.3408 179.546 29.4065 179.918 28.6525C180.789 26.8166 181.814 24.866 182.994 22.8006C184.213 20.7025 185.49 18.6535 186.824 16.6537C188.198 14.6211 189.516 12.8016 190.778 11.1952C191.78 9.91664 192.771 8.96592 193.753 8.34303C194.773 7.68736 195.617 7.35952 196.283 7.35952C196.817 7.35952 197.197 7.55622 197.425 7.94963C197.692 8.31025 197.756 8.86757 197.617 9.62159C197.521 10.1461 197.306 10.769 196.974 11.4903C196.675 12.2115 196.224 13.0311 195.622 13.949C193.985 16.5061 192.115 19.0633 190.011 21.6204C187.941 24.1775 185.467 26.5707 182.591 28.8C182.379 29.2262 182.102 29.7343 181.76 30.3244C181.458 30.8818 181.169 31.4555 180.894 32.0456C180.531 32.9307 180.292 33.6848 180.178 34.3077C179.991 35.3239 180.049 36.0944 180.353 36.6189C180.696 37.1107 181.167 37.3565 181.767 37.3565C182.3 37.3565 182.9 37.1762 183.567 36.8156C184.239 36.4222 184.908 35.8649 185.574 35.1436C186.585 33.9962 187.516 32.8324 188.366 31.6522C189.256 30.4392 189.928 29.5049 190.382 28.8492C190.648 28.4886 190.898 28.3083 191.131 28.3083C191.298 28.3083 191.363 28.4066 191.327 28.6033C191.297 28.7672 191.214 28.9475 191.077 29.1442C190.657 29.7999 190.1 30.6523 189.407 31.7014C188.754 32.7176 187.964 33.7503 187.037 34.7994C186.15 35.8157 185.141 36.6845 184.008 37.4057C182.915 38.0942 181.735 38.4384 180.468 38.4384ZM183.28 27.2264C184.703 26.0134 186.126 24.6201 187.549 23.0465C188.977 21.4401 190.332 19.7845 191.612 18.0798C192.932 16.3422 194.066 14.7031 195.016 13.1622C195.34 12.6705 195.623 12.1295 195.865 11.5394C196.14 10.9493 196.314 10.4576 196.386 10.0642C196.47 9.6052 196.396 9.37571 196.163 9.37571C196.029 9.37571 195.805 9.50685 195.49 9.76912C195.181 9.9986 194.756 10.4084 194.214 10.9985C193.43 11.8181 192.525 12.9327 191.499 14.3424C190.507 15.7521 189.479 17.2602 188.417 18.8666C187.355 20.473 186.369 22.0302 185.458 23.5382C184.554 25.0135 183.828 26.2429 183.28 27.2264ZM192.04 38.2909C190.773 38.2909 189.915 37.8811 189.466 37.0615C189.023 36.2091 188.913 35.1764 189.136 33.9634C189.407 32.4882 190.04 30.9473 191.036 29.3409C191.98 27.8329 193.083 26.456 194.345 25.2102C195.608 23.9644 196.908 22.9645 198.247 22.2105C199.592 21.4237 200.831 21.0303 201.964 21.0303C203.231 21.0303 204.089 21.4401 204.538 22.2597C204.987 23.0793 205.097 24.1119 204.868 25.3577C204.591 26.8658 203.958 28.4066 202.968 29.9802C202.405 30.8654 201.658 31.8489 200.726 32.9307C199.799 33.9798 198.788 34.9469 197.692 35.8321C197.826 36.1927 198.052 36.5042 198.37 36.7664C198.695 36.9959 199.174 37.1107 199.807 37.1107C200.607 37.1107 201.417 36.7828 202.238 36.1271C203.092 35.4715 203.903 34.6847 204.672 33.7667C205.447 32.816 206.155 31.8653 206.796 30.9145C207.438 29.9638 207.963 29.1934 208.371 28.6033C208.508 28.4066 208.692 28.3083 208.926 28.3083C209.059 28.3083 209.147 28.3738 209.189 28.505C209.238 28.6033 209.191 28.7672 209.049 28.9967C208.759 29.4885 208.29 30.2261 207.642 31.2096C207.001 32.1603 206.25 33.1602 205.39 34.2093C204.537 35.2256 203.61 36.0944 202.611 36.8156C201.612 37.5368 200.579 37.8975 199.512 37.8975C198.779 37.8975 198.167 37.7827 197.676 37.5532C197.19 37.291 196.814 36.9795 196.547 36.6189C195.751 37.1434 194.976 37.5532 194.221 37.8483C193.467 38.1433 192.74 38.2909 192.04 38.2909ZM192.989 37.209C193.889 37.209 194.934 36.7828 196.124 35.9304C195.93 35.537 195.805 35.1272 195.75 34.7011C195.695 34.2749 195.701 33.8815 195.767 33.5208C195.876 32.9307 196.102 32.4226 196.447 31.9964C196.826 31.5702 197.315 31.3571 197.915 31.3571C198.348 31.3571 198.668 31.521 198.875 31.8489C199.12 32.1439 199.207 32.4882 199.135 32.8816C199.117 32.9799 199.082 33.0783 199.03 33.1766C199.018 33.2422 198.987 33.3241 198.935 33.4225C199.64 32.6685 200.337 31.7833 201.023 30.767C202.551 28.4394 203.454 26.5215 203.732 25.0135C203.87 24.2595 203.829 23.6694 203.607 23.2432C203.385 22.817 202.975 22.6039 202.375 22.6039C201.675 22.6039 200.854 22.899 199.912 23.4891C199.003 24.0792 198.075 24.866 197.128 25.8495C196.214 26.833 195.362 27.9312 194.572 29.1442C193.834 30.2589 193.201 31.3407 192.675 32.3898C192.188 33.4061 191.875 34.2913 191.737 35.0453C191.616 35.701 191.653 36.2255 191.847 36.6189C192.042 37.0123 192.422 37.209 192.989 37.209ZM213.329 38.34C212.696 38.34 212.107 38.0942 211.565 37.6024C211.028 37.0779 210.865 36.2419 211.076 35.0945C211.238 34.2093 211.642 33.193 212.286 32.0456C212.891 30.9309 213.624 29.8491 214.483 28.8C215.376 27.7509 216.033 26.8986 216.453 26.2429C216.602 25.9806 216.694 25.7511 216.73 25.5544C216.839 24.9643 216.534 24.5381 215.815 24.2759C215.13 24.0136 214.191 23.8661 212.997 23.8333L212.098 25.4561C211.539 26.5052 210.796 27.7345 209.87 29.1442C208.977 30.5539 208.01 31.9144 206.969 33.2258C205.962 34.5371 204.969 35.5862 203.991 36.373C203.912 36.4386 203.822 36.4714 203.722 36.4714C203.589 36.4714 203.521 36.3894 203.518 36.2255C203.481 36.0616 203.584 35.8649 203.826 35.6354C205.44 33.9306 206.953 32.0456 208.366 29.9802C209.785 27.8821 211.044 25.7511 212.142 23.5874C213.273 21.4237 214.174 19.4239 214.845 17.588C215.042 17.0635 215.294 16.6865 215.603 16.457C215.918 16.1947 216.225 16.0636 216.525 16.0636C216.959 16.0636 217.32 16.2767 217.608 16.7029C217.902 17.0963 217.98 17.67 217.841 18.424C217.817 18.5551 217.773 18.7027 217.71 18.8666C217.68 19.0305 217.633 19.1944 217.57 19.3583C217.31 20.0468 216.789 20.7025 216.008 21.3253C215.266 21.9154 214.668 22.358 214.214 22.6531C214.541 22.6859 214.885 22.7186 215.246 22.7514C215.612 22.7514 216.012 22.7514 216.446 22.7514C218.012 22.7514 219.58 22.6531 221.15 22.4564C221.18 22.6531 221.186 22.8006 221.168 22.899C221.09 23.3251 220.857 23.8661 220.47 24.5217C220.116 25.1774 219.758 25.7675 219.394 26.2921C219.207 26.5871 218.841 27.128 218.296 27.9148C217.757 28.6689 217.164 29.5376 216.517 30.5211C215.875 31.4719 215.3 32.4226 214.792 33.3733C214.323 34.2913 214.029 35.0781 213.908 35.7337C213.751 36.5861 214.006 37.0123 214.673 37.0123C215.173 37.0123 215.78 36.7009 216.495 36.078C217.215 35.4223 217.943 34.6355 218.679 33.7175C219.454 32.7668 220.156 31.8489 220.785 30.9637C221.454 30.0458 221.97 29.3245 222.333 28.8C222.527 28.4722 222.74 28.3083 222.974 28.3083C223.107 28.3083 223.153 28.423 223.11 28.6525C223.086 28.7836 223 28.9803 222.852 29.2426C222.347 29.9966 221.756 30.849 221.082 31.7997C220.407 32.7504 219.668 33.6848 218.866 34.6027C218.097 35.5206 217.283 36.3238 216.423 37.0123C215.602 37.668 214.757 38.0942 213.888 38.2909C213.782 38.3236 213.596 38.34 213.329 38.34ZM230.697 18.3256C230.197 18.3256 229.81 18.1617 229.537 17.8339C229.303 17.4733 229.232 17.0471 229.322 16.5553C229.437 15.9324 229.786 15.3915 230.37 14.9325C230.955 14.4736 231.547 14.2441 232.147 14.2441C232.68 14.2441 233.084 14.408 233.357 14.7358C233.63 15.0637 233.724 15.4571 233.64 15.916C233.525 16.5389 233.173 17.0963 232.582 17.588C231.992 18.0798 231.363 18.3256 230.697 18.3256ZM222.975 38.2909C221.742 38.2909 220.938 37.9466 220.565 37.2582C220.198 36.5369 220.098 35.7173 220.267 34.7994C220.358 34.3077 220.498 33.8159 220.688 33.3241C220.918 32.7996 221.156 32.3242 221.401 31.8981L226.297 23.4891C226.445 23.2268 226.537 22.9973 226.574 22.8006C226.634 22.4728 226.602 22.1941 226.477 21.9646C226.359 21.7024 226.275 21.522 226.227 21.4237L228.995 21.3253C229.501 21.2926 229.839 21.3581 230.009 21.522C230.218 21.6532 230.304 21.8171 230.268 22.0138C230.232 22.2105 230.049 22.5711 229.719 23.0957L223.806 32.6849C223.806 32.6849 223.667 32.898 223.388 33.3241C223.149 33.7175 223.001 33.9798 222.944 34.111C222.753 34.6027 222.629 34.9141 222.572 35.0453C222.514 35.1764 222.483 35.2584 222.477 35.2912C222.471 35.3239 222.447 35.4551 222.404 35.6846C222.326 36.1108 222.36 36.4714 222.505 36.7664C222.684 37.0615 223.041 37.209 223.574 37.209C223.907 37.209 224.309 37.1107 224.778 36.9139C225.248 36.7172 225.601 36.5205 225.837 36.3238C226.827 35.4715 227.848 34.3568 228.902 32.9799C229.994 31.5702 231.017 30.1769 231.97 28.8C232.164 28.4722 232.361 28.3083 232.561 28.3083C232.727 28.3083 232.79 28.423 232.747 28.6525C232.723 28.7836 232.637 28.9803 232.489 29.2426C232.029 29.931 231.456 30.7834 230.769 31.7997C230.082 32.816 229.295 33.8323 228.408 34.8486C227.561 35.8321 226.676 36.6517 225.756 37.3074C224.835 37.963 223.908 38.2909 222.975 38.2909ZM232.328 38.4876C230.695 38.4876 229.603 38.0778 229.054 37.2582C228.544 36.4058 228.374 35.5206 228.542 34.6027C228.681 33.8487 228.991 33.1602 229.472 32.5373C229.987 31.9144 230.514 31.5866 231.053 31.5538C231.955 30.2753 232.928 28.882 233.972 27.3739C235.049 25.8659 236.051 24.407 236.976 22.9973C237.618 22.0466 238.37 21.1286 239.233 20.2435C240.129 19.3583 241.022 18.8502 241.913 18.719H242.413C242.68 18.719 242.91 18.7354 243.104 18.7682C243.332 18.801 243.553 18.8666 243.768 18.9649C244.105 19.1288 244.243 19.3747 244.182 19.7026C244.146 19.8993 244.011 19.9976 243.778 19.9976C243.678 19.9976 243.554 19.9484 243.405 19.8501C243.035 19.6862 242.7 19.6042 242.4 19.6042C242.2 19.6042 242.008 19.6534 241.823 19.7517C241.13 20.0796 240.595 20.5385 240.22 21.1286C239.878 21.7187 239.647 22.3416 239.526 22.9973C239.43 23.5218 239.381 24.0628 239.378 24.6201C239.415 25.1446 239.478 25.62 239.566 26.0462C239.764 26.9641 239.981 27.8657 240.218 28.7508C240.489 29.636 240.531 30.5867 240.344 31.603C240.163 32.5865 239.637 33.6356 238.765 34.7502C237.9 35.8321 236.89 36.7009 235.736 37.3565L236.077 37.4057C236.237 37.4385 236.351 37.4549 236.418 37.4549C236.484 37.4549 236.534 37.4549 236.568 37.4549C237.334 37.4549 238.09 37.2418 238.835 36.8156C239.62 36.3566 240.339 35.7993 240.993 35.1436C241.647 34.488 242.416 33.57 243.299 32.3898C244.216 31.2096 245.112 29.9638 245.987 28.6525C246.117 28.4886 246.248 28.4066 246.382 28.4066C246.548 28.4066 246.653 28.4722 246.696 28.6033C246.777 28.7017 246.77 28.8328 246.673 28.9967C246.071 29.9146 245.387 30.9145 244.622 31.9964C243.895 33.0455 243.092 34.0618 242.211 35.0453C241.336 35.996 240.375 36.7828 239.327 37.4057C238.318 37.9958 237.247 38.2909 236.114 38.2909C235.847 38.2909 235.567 38.2745 235.273 38.2417C234.979 38.2089 234.691 38.1433 234.409 38.045C234.052 38.1761 233.684 38.2745 233.305 38.34C232.954 38.4384 232.628 38.4876 232.328 38.4876ZM234.099 37.0123C234.75 36.5533 235.374 35.8813 235.97 34.9961C236.599 34.111 237.047 32.9471 237.312 31.5047C237.547 30.2261 237.664 28.8656 237.663 27.4231C237.661 25.9806 237.763 24.7021 237.968 23.5874C238.01 23.3579 238.046 23.1612 238.076 22.9973C238.146 22.8006 238.212 22.6203 238.276 22.4564C237.68 23.3415 236.99 24.3742 236.206 25.5544C235.429 26.7019 234.657 27.8165 233.891 28.8984C233.126 29.9802 232.474 30.8982 231.935 31.6522C231.935 31.6522 232.015 31.6686 232.176 31.7014C232.376 31.7014 232.538 31.8161 232.663 32.0456C232.793 32.2423 232.784 32.6521 232.636 33.275C232.452 34.0946 232.494 34.865 232.761 35.5862C233.068 36.2747 233.514 36.75 234.099 37.0123ZM232.073 37.7008C232.273 37.7008 232.459 37.6844 232.632 37.6516C232.81 37.586 232.969 37.5368 233.109 37.5041C232.675 37.1434 232.312 36.6681 232.021 36.078C231.769 35.4551 231.697 34.6683 231.805 33.7175C231.091 34.3404 230.667 35.0125 230.534 35.7337C230.438 36.2583 230.52 36.7172 230.781 37.1107C231.042 37.5041 231.473 37.7008 232.073 37.7008ZM247.506 38.2909C246.573 38.2909 245.796 37.9794 245.178 37.3565C244.565 36.7009 244.385 35.6846 244.638 34.3077C244.837 33.2258 245.281 31.8981 245.971 30.3244C246.7 28.718 247.521 27.0625 248.434 25.3577C249.387 23.6202 250.293 22.0466 251.152 20.6369H248.502C248.269 20.6369 248.182 20.473 248.243 20.1451C248.273 19.9812 248.333 19.8337 248.424 19.7026C248.548 19.5714 248.694 19.5058 248.86 19.5058H251.86C252.656 18.2601 253.479 17.0471 254.33 15.8669C255.18 14.6867 256.002 13.572 256.794 12.5229C257.802 11.2116 258.8 10.2281 259.787 9.57241C260.774 8.91674 261.585 8.58891 262.218 8.58891C262.718 8.58891 263.098 8.78561 263.359 9.17901C263.626 9.53963 263.691 10.097 263.552 10.851C263.468 11.3099 263.25 11.9492 262.899 12.7688C262.555 13.5556 262.084 14.3916 261.488 15.2768C261.17 15.7357 260.716 16.3914 260.126 17.2438C259.57 18.0962 259.031 18.8502 258.51 19.5058H260.91C261.144 19.5058 261.23 19.6698 261.17 19.9976C261.146 20.1287 261.085 20.2763 260.989 20.4402C260.898 20.5713 260.786 20.6369 260.652 20.6369H257.702C256.61 22.0466 255.407 23.4235 254.093 24.7676C252.779 26.1117 251.265 27.4559 249.551 28.8C249.397 29.0951 249.185 29.5212 248.916 30.0786C248.68 30.6359 248.441 31.2096 248.2 31.7997C247.997 32.357 247.81 32.8324 247.637 33.2258C247.498 33.6192 247.429 33.8159 247.429 33.8159C247.25 34.2421 247.128 34.6355 247.062 34.9961C246.935 35.6846 247.008 36.1927 247.281 36.5205C247.56 36.8156 247.917 36.9631 248.35 36.9631C248.617 36.9631 248.889 36.9303 249.168 36.8648C249.453 36.7664 249.783 36.6025 250.159 36.373C251.476 35.5534 252.698 34.4388 253.823 33.0291C254.983 31.6194 256.016 30.2589 256.924 28.9475C257.196 28.5541 257.433 28.3574 257.633 28.3574C257.766 28.3574 257.814 28.4558 257.778 28.6525C257.76 28.7508 257.677 28.9311 257.529 29.1934C256.518 30.7015 255.678 31.9144 255.01 32.8324C254.341 33.7503 253.716 34.5207 253.135 35.1436C252.559 35.7337 251.901 36.3238 251.159 36.9139C250.608 37.3729 250.011 37.7171 249.369 37.9466C248.727 38.1761 248.106 38.2909 247.506 38.2909ZM254.91 19.5058H257.46C258.084 18.6535 258.671 17.8175 259.222 16.9979C259.806 16.1783 260.34 15.3587 260.824 14.5391C261.153 14.0146 261.462 13.4245 261.749 12.7688C262.036 12.1131 262.213 11.605 262.28 11.2444C262.37 10.7526 262.299 10.5067 262.065 10.5067C261.899 10.5067 261.621 10.6543 261.234 10.9493C260.886 11.2116 260.418 11.6706 259.831 12.3262C259.08 13.1458 258.284 14.2113 257.443 15.5226C256.641 16.8012 255.797 18.1289 254.91 19.5058ZM250.241 27.2264C251.388 26.2429 252.481 25.1938 253.519 24.0792C254.591 22.9645 255.602 21.8171 256.552 20.6369H254.202C253.446 21.8499 252.729 23.0301 252.051 24.1775C251.374 25.3249 250.77 26.3412 250.241 27.2264Z" fill="#2F3640"/>
</svg>
